# File produced by Open Asset Import Library (http://www.assimp.sf.net)
# (assimp v3.1.230295570)

mtllib ASM%20-%20PBR%20Metallic%20Roughness.mtl

# vertex positions
v -0.500000 0.690476 0.151900
v 0.500000 0.690476 0.151900
v 0.500000 1.310164 0.151900
v -0.500000 1.310164 0.151900
v -0.500000 1.310164 -0.151900
v 0.500000 1.310164 -0.151900
v 0.500000 0.690476 -0.151900
v -0.500000 0.690476 -0.151900
v -0.500000 4.935521 -0.151900
v -0.500000 4.935521 0.151900
v -0.020118 5.704683 0.151900
v -0.020118 5.704683 -0.151900
v 0.500000 4.935521 -0.151900
v 0.500000 4.935521 0.151900
v -0.500000 4.339931 -0.151900
v -0.500000 4.339931 0.151900
v 0.500000 4.339931 -0.151900
v 0.500000 4.339931 0.151900
v 0.500000 3.756417 -0.151900
v -0.500000 3.756417 -0.151900
v 0.500000 3.756417 0.151900
v -0.500000 3.756417 0.151900
v -0.500000 3.084639 -0.151900
v -0.500000 3.084639 0.151900
v 0.500000 3.084639 -0.151900
v 0.500000 3.084639 0.151900
v 0.500000 2.488119 -0.151900
v -0.500000 2.488119 -0.151900
v 0.500000 2.488119 0.151900
v -0.500000 2.488119 0.151900
v -0.500000 1.836636 -0.151900
v -0.500000 1.836636 0.151900
v 0.500000 1.836636 -0.151900
v 0.500000 1.836636 0.151900
v -1.708069 3.756417 0.151900
v -1.708069 3.756417 -0.151900
v -1.708069 4.339931 0.151900
v -1.708069 4.339931 -0.151900
v -1.708069 2.488119 0.151900
v -1.708069 2.488119 -0.151900
v -1.708069 3.084639 0.151900
v -1.708069 3.084639 -0.151900
v -1.708069 1.310164 0.151900
v -1.708069 1.310164 -0.151900
v -1.708069 1.836636 0.151900
v -1.708069 1.836636 -0.151900
v -2.916138 0.690476 0.151900
v -2.916138 1.310164 0.151900
v -3.916138 1.310164 0.151900
v -3.916138 0.690476 0.151900
v -2.916138 1.310164 -0.151900
v -2.916138 0.690476 -0.151900
v -3.916138 0.690476 -0.151900
v -3.916138 1.310164 -0.151900
v -2.916138 4.935521 -0.151900
v -3.396020 5.704683 -0.151900
v -3.396020 5.704683 0.151900
v -2.916138 4.935521 0.151900
v -3.916138 4.935521 -0.151900
v -3.916138 4.935521 0.151900
v -2.916138 4.339931 -0.151900
v -2.916138 4.339931 0.151900
v -3.916138 4.339931 -0.151900
v -3.916138 4.339931 0.151900
v -2.916138 3.756417 -0.151900
v -3.916138 3.756417 -0.151900
v -3.916138 3.756417 0.151900
v -2.916138 3.756417 0.151900
v -2.916138 3.084639 -0.151900
v -2.916138 3.084639 0.151900
v -3.916138 3.084639 -0.151900
v -3.916138 3.084639 0.151900
v -2.916138 2.488119 -0.151900
v -3.916138 2.488119 -0.151900
v -3.916138 2.488119 0.151900
v -2.916138 2.488119 0.151900
v -2.916138 1.836636 -0.151900
v -2.916138 1.836636 0.151900
v -3.916138 1.836636 -0.151900
v -3.916138 1.836636 0.151900

# UV coordinates
vt 0.219323 0.419499
vt 0.361975 0.418464
vt 0.361767 0.505499
vt 0.219338 0.506812
vt 0.547685 0.508428
vt 0.405250 0.505784
vt 0.405600 0.418720
vt 0.548119 0.420841
vt 0.176465 0.419799
vt 0.176665 0.507085
vt 0.015724 0.704671
vt 0.061883 0.704669
vt 0.043126 0.824435
vt 0.009689 0.845598
vt 0.146323 0.890203
vt 0.019798 0.979726
vt 0.162400 0.839954
vt 0.992803 0.392398
vt 0.992804 0.435412
vt 0.908477 0.435414
vt 0.908476 0.392400
vt 0.908482 0.761599
vt 0.908480 0.620013
vt 0.992806 0.620012
vt 0.992809 0.761598
vt 0.992806 0.576998
vt 0.908479 0.576999
vt 0.532407 0.960389
vt 0.402925 0.917202
vt 0.404087 0.841797
vt 0.544900 0.867588
vt 0.358925 0.839652
vt 0.359405 0.911864
vt 0.216049 0.856923
vt 0.217536 0.945369
vt 0.171847 0.763366
vt 0.215467 0.759598
vt 0.174395 0.859808
vt 0.404546 0.751866
vt 0.548530 0.765163
vt 0.359758 0.750831
vt 0.404901 0.670028
vt 0.548452 0.677295
vt 0.360799 0.669397
vt 0.217776 0.673703
vt 0.175284 0.582404
vt 0.218458 0.581331
vt 0.175438 0.674569
vt 0.405070 0.579456
vt 0.547913 0.583409
vt 0.361392 0.579057
vt 0.656252 0.261778
vt 0.697549 0.261781
vt 0.697537 0.425998
vt 0.656240 0.425995
vt 0.776868 0.261787
vt 0.776856 0.426004
vt 0.818165 0.261790
vt 0.818153 0.426007
vt 0.897484 0.261796
vt 0.897472 0.426013
vt 0.561636 0.251389
vt 0.561635 0.209577
vt 0.727901 0.209574
vt 0.727901 0.251386
vt 0.561633 0.127479
vt 0.727899 0.127476
vt 0.561633 0.085667
vt 0.727898 0.085664
vt 0.561631 0.003568
vt 0.727897 0.003565
vt 0.900743 0.604191
vt 0.900740 0.647204
vt 0.729694 0.647192
vt 0.729698 0.604178
vt 0.900734 0.721745
vt 0.729689 0.721733
vt 0.900731 0.764759
vt 0.729686 0.764747
vt 0.900725 0.839300
vt 0.729680 0.839288
vt 0.541242 0.339406
vt 0.453929 0.339613
vt 0.454931 0.197232
vt 0.541953 0.196885
vt 0.451895 0.011349
vt 0.539481 0.010854
vt 0.541675 0.153316
vt 0.454610 0.153759
vt 0.541112 0.382243
vt 0.453825 0.382305
vt 0.014993 0.636902
vt 0.008917 0.495976
vt 0.042360 0.517130
vt 0.061152 0.636890
vt 0.018988 0.361846
vt 0.145539 0.451332
vt 0.161629 0.501576
vt 0.992803 0.379914
vt 0.908476 0.379900
vt 0.908484 0.336886
vt 0.992810 0.336900
vt 0.908539 0.010701
vt 0.992866 0.010715
vt 0.992842 0.152301
vt 0.908515 0.152286
vt 0.992835 0.195315
vt 0.908508 0.195300
vt 0.000000 0.026925
vt 0.092797 0.014379
vt 0.118725 0.155200
vt 0.043359 0.156367
vt 0.120886 0.200373
vt 0.048692 0.199891
vt 0.103584 0.343278
vt 0.015124 0.341771
vt 0.197143 0.387494
vt 0.100676 0.384919
vt 0.200949 0.343869
vt 0.195212 0.010701
vt 0.208617 0.154712
vt 0.209679 0.199520
vt 0.283061 0.010724
vt 0.290420 0.154303
vt 0.291088 0.198425
vt 0.286923 0.341506
vt 0.378353 0.383854
vt 0.286146 0.383848
vt 0.379356 0.340684
vt 0.376925 0.011186
vt 0.380957 0.154035
vt 0.381397 0.197725
vt 0.656228 0.590212
vt 0.697524 0.590215
vt 0.776844 0.590221
vt 0.818140 0.590224
vt 0.897460 0.590230
vt 0.894167 0.251383
vt 0.894166 0.209571
vt 0.894165 0.127473
vt 0.894164 0.085661
vt 0.894162 0.003562
vt 0.558652 0.604165
vt 0.558649 0.647179
vt 0.558643 0.721720
vt 0.558640 0.764734
vt 0.558635 0.839275

# vertex normals
vn 0.000000 0.000000 1.000000
vn 0.000000 0.000000 -1.000000
vn 1.000000 0.000000 0.000000
vn -1.000000 0.000000 0.000000
vn -0.943379 0.331717 0.000000
vn -0.848417 0.529329 0.000000
vn 0.934439 0.356122 0.000000
vn 0.828382 0.560163 0.000000
vn 0.000000 -1.000000 0.000000
vn 0.000000 1.000000 0.000000
vn 0.000000 -1.000000 -0.000001
vn 0.000000 -1.000000 -0.000001
vn 0.943379 0.331717 0.000000
vn 0.848417 0.529329 0.000000
vn -0.934439 0.356122 0.000000
vn -0.828382 0.560163 0.000000

# Mesh
g valla
usemtl Valla
f 4/4/1 1/1/1 2/2/1
f 2/2/1 3/3/1 4/4/1
f 8/8/2 5/5/2 6/6/2
f 6/6/2 7/7/2 8/8/2
f 3/3/3 2/2/3 7/7/3
f 7/7/3 6/6/3 3/3/3
f 5/10/4 8/9/4 1/1/4
f 1/1/4 4/4/4 5/10/4
f 12/14/6 9/11/5 10/12/5
f 10/12/5 11/13/6 12/14/6
f 12/14/2 13/15/2 9/16/2
f 11/13/8 14/17/7 13/15/7
f 13/15/7 12/14/8 11/13/8
f 10/12/1 14/17/1 11/13/1
f 9/21/5 15/18/4 16/19/4
f 16/19/4 10/20/5 9/21/5
f 15/25/2 9/22/2 13/23/2
f 13/23/2 17/24/2 15/25/2
f 14/27/7 18/26/3 17/24/3
f 17/24/3 13/23/7 14/27/7
f 10/20/1 16/19/1 18/26/1
f 18/26/1 14/27/1 10/20/1
f 20/31/2 15/28/2 17/29/2
f 17/29/2 19/30/2 20/31/2
f 18/33/3 21/32/3 19/30/3
f 19/30/3 17/29/3 18/33/3
f 16/35/1 22/34/1 21/32/1
f 21/32/1 18/33/1 16/35/1
f 20/38/4 23/36/4 24/37/4
f 24/37/4 22/34/4 20/38/4
f 23/40/2 20/31/2 19/30/2
f 19/30/2 25/39/2 23/40/2
f 21/32/3 26/41/3 25/39/3
f 25/39/3 19/30/3 21/32/3
f 22/34/1 24/37/1 26/41/1
f 26/41/1 21/32/1 22/34/1
f 28/43/2 23/40/2 25/39/2
f 25/39/2 27/42/2 28/43/2
f 26/41/3 29/44/3 27/42/3
f 27/42/3 25/39/3 26/41/3
f 24/37/1 30/45/1 29/44/1
f 29/44/1 26/41/1 24/37/1
f 28/48/4 31/46/4 32/47/4
f 32/47/4 30/45/4 28/48/4
f 31/50/2 28/43/2 27/42/2
f 27/42/2 33/49/2 31/50/2
f 29/44/3 34/51/3 33/49/3
f 33/49/3 27/42/3 29/44/3
f 30/45/1 32/47/1 34/51/1
f 34/51/1 29/44/1 30/45/1
f 5/5/2 31/50/2 33/49/2
f 33/49/2 6/6/2 5/5/2
f 34/51/3 3/3/3 6/6/3
f 6/6/3 33/49/3 34/51/3
f 32/47/1 4/4/1 3/3/1
f 3/3/1 34/51/1 32/47/1
f 36/55/9 20/52/9 22/53/9
f 22/53/9 35/54/9 36/55/9
f 35/54/1 22/53/1 16/56/1
f 16/56/1 37/57/1 35/54/1
f 37/57/10 16/56/10 15/58/10
f 15/58/10 38/59/10 37/57/10
f 38/59/2 15/58/2 20/60/2
f 20/60/2 36/61/2 38/59/2
f 40/65/12 28/62/11 30/63/11
f 30/63/11 39/64/12 40/65/12
f 39/64/1 30/63/1 24/66/1
f 24/66/1 41/67/1 39/64/1
f 41/67/10 24/66/10 23/68/10
f 23/68/10 42/69/10 41/67/10
f 42/69/2 23/68/2 28/70/2
f 28/70/2 40/71/2 42/69/2
f 44/75/9 5/72/9 4/73/9
f 4/73/9 43/74/9 44/75/9
f 43/74/1 4/73/1 32/76/1
f 32/76/1 45/77/1 43/74/1
f 45/77/10 32/76/10 31/78/10
f 31/78/10 46/79/10 45/77/10
f 46/79/2 31/78/2 5/80/2
f 5/80/2 44/81/2 46/79/2
f 50/85/1 47/82/1 48/83/1
f 48/83/1 49/84/1 50/85/1
f 54/89/2 51/86/2 52/87/2
f 52/87/2 53/88/2 54/89/2
f 53/88/4 50/85/4 49/84/4
f 49/84/4 54/89/4 53/88/4
f 47/82/3 52/90/3 51/91/3
f 51/91/3 48/83/3 47/82/3
f 58/95/13 55/92/13 56/93/14
f 56/93/14 57/94/14 58/95/13
f 56/93/2 55/96/2 59/97/2
f 59/97/15 60/98/15 57/94/16
f 57/94/16 56/93/16 59/97/15
f 58/95/1 57/94/1 60/98/1
f 62/102/3 61/99/3 55/100/13
f 55/100/13 58/101/13 62/102/3
f 59/106/2 55/103/2 61/104/2
f 61/104/2 63/105/2 59/106/2
f 63/105/4 64/107/4 60/108/15
f 60/108/15 59/106/15 63/105/4
f 64/107/1 62/102/1 58/101/1
f 58/101/1 60/108/1 64/107/1
f 63/112/2 61/109/2 65/110/2
f 65/110/2 66/111/2 63/112/2
f 66/111/4 67/113/4 64/114/4
f 64/114/4 63/112/4 66/111/4
f 67/113/1 68/115/1 62/116/1
f 62/116/1 64/114/1 67/113/1
f 70/119/3 69/117/3 65/118/3
f 65/118/3 68/115/3 70/119/3
f 66/111/2 65/110/2 69/120/2
f 69/120/2 71/121/2 66/111/2
f 71/121/4 72/122/4 67/113/4
f 67/113/4 66/111/4 71/121/4
f 72/122/1 70/119/1 68/115/1
f 68/115/1 67/113/1 72/122/1
f 71/121/2 69/120/2 73/123/2
f 73/123/2 74/124/2 71/121/2
f 74/124/4 75/125/4 72/122/4
f 72/122/4 71/121/4 74/124/4
f 75/125/1 76/126/1 70/119/1
f 70/119/1 72/122/1 75/125/1
f 78/129/3 77/127/3 73/128/3
f 73/128/3 76/126/3 78/129/3
f 74/124/2 73/123/2 77/130/2
f 77/130/2 79/131/2 74/124/2
f 79/131/4 80/132/4 75/125/4
f 75/125/4 74/124/4 79/131/4
f 80/132/1 78/129/1 76/126/1
f 76/126/1 75/125/1 80/132/1
f 79/131/2 77/130/2 51/86/2
f 51/86/2 54/89/2 79/131/2
f 54/89/4 49/84/4 80/132/4
f 80/132/4 79/131/4 54/89/4
f 49/84/1 48/83/1 78/129/1
f 78/129/1 80/132/1 49/84/1
f 68/134/9 65/133/9 36/55/9
f 36/55/9 35/54/9 68/134/9
f 62/135/1 68/134/1 35/54/1
f 35/54/1 37/57/1 62/135/1
f 61/136/10 62/135/10 37/57/10
f 37/57/10 38/59/10 61/136/10
f 65/137/2 61/136/2 38/59/2
f 38/59/2 36/61/2 65/137/2
f 76/139/12 73/138/12 40/65/12
f 40/65/12 39/64/12 76/139/12
f 70/140/1 76/139/1 39/64/1
f 39/64/1 41/67/1 70/140/1
f 69/141/10 70/140/10 41/67/10
f 41/67/10 42/69/10 69/141/10
f 73/142/2 69/141/2 42/69/2
f 42/69/2 40/71/2 73/142/2
f 48/144/9 51/143/9 44/75/9
f 44/75/9 43/74/9 48/144/9
f 78/145/1 48/144/1 43/74/1
f 43/74/1 45/77/1 78/145/1
f 77/146/10 78/145/10 45/77/10
f 45/77/10 46/79/10 77/146/10
f 51/147/2 77/146/2 46/79/2
f 46/79/2 44/81/2 51/147/2
