# File produced by Open Asset Import Library (http://www.assimp.sf.net)
# (assimp v3.1.230295570)

mtllib Cartel%20Se%C3%B1al%20-%20Texturas.mtl

# vertex positions
v -1.077617 5.972220 0.364354
v 1.461030 5.972220 0.364354
v 1.550167 6.162703 0.364354
v -1.032780 6.162703 0.364354
v -1.086416 7.839530 0.364354
v 1.410583 7.839530 0.364354
v 1.410583 7.839530 0.199227
v -1.086416 7.839530 0.199227
v -1.032780 6.162703 0.199227
v 1.550167 6.162703 0.199227
v 1.461030 5.972220 0.199227
v -1.077617 5.972220 0.199227
v -1.050870 7.591121 0.199227
v -1.050870 7.591121 0.364354
v 1.508697 7.591121 0.199227
v 1.508697 7.591121 0.364354
v -1.015038 6.923130 0.199227
v -1.015038 6.923130 0.364354
v -1.010331 7.103586 0.364354
v -1.010331 7.103586 0.199227
v 1.653440 7.103586 0.199227
v 1.680614 6.923130 0.199227
v 1.680614 6.923130 0.364354
v 1.653440 7.103586 0.364354
v -1.007500 6.735461 0.199227
v -1.007500 6.735461 0.364354
v 1.663618 6.735461 0.199227
v 1.663618 6.735461 0.364354
v -0.293891 -0.047928 0.199146
v 0.293891 -0.047928 0.199146
v 0.293891 8.855879 0.199146
v -0.293891 8.855879 0.199146
v 0.293891 8.855879 -0.199146
v -0.293891 8.855879 -0.199146
v 0.293891 -0.047928 -0.199146
v -0.293891 -0.047928 -0.199146

# UV coordinates
vt 0.239095 0.006868
vt 0.524212 0.006851
vt 0.534225 0.028243
vt 0.244132 0.028261
vt 0.864098 0.291824
vt 0.864078 0.006998
vt 0.882914 0.006996
vt 0.882934 0.291823
vt 0.555143 0.193815
vt 0.845235 0.193806
vt 0.835225 0.215200
vt 0.550108 0.215209
vt 0.956018 0.287857
vt 0.956051 0.002740
vt 0.974597 0.002742
vt 0.974563 0.287859
vt 0.618642 0.224786
vt 0.618645 0.243332
vt 0.595026 0.243336
vt 0.595022 0.224790
vt 0.641657 0.239258
vt 0.641654 0.220712
vt 0.663632 0.220708
vt 0.663635 0.239254
vt 0.824337 0.239227
vt 0.824334 0.220681
vt 0.852517 0.220676
vt 0.852521 0.239222
vt 0.549113 0.005490
vt 0.829552 0.005481
vt 0.840573 0.033379
vt 0.553106 0.033388
vt 0.430669 0.224818
vt 0.430672 0.243364
vt 0.400676 0.243369
vt 0.400673 0.224824
vt 0.242110 0.188688
vt 0.529577 0.188671
vt 0.518559 0.216570
vt 0.238119 0.216587
vt 0.749119 0.239240
vt 0.749116 0.220694
vt 0.769390 0.220690
vt 0.769393 0.239236
vt 0.557660 0.088144
vt 0.856831 0.088134
vt 0.859883 0.108401
vt 0.557132 0.108411
vt 0.508282 0.224805
vt 0.508285 0.243351
vt 0.487790 0.243354
vt 0.487787 0.224809
vt 0.246130 0.113665
vt 0.548880 0.113647
vt 0.545830 0.133914
vt 0.246660 0.133932
vt 0.728025 0.239243
vt 0.728022 0.220698
vt 0.857975 0.129479
vt 0.557980 0.129488
vt 0.529446 0.224801
vt 0.529449 0.243347
vt 0.246975 0.092588
vt 0.546970 0.092570
vt 0.055733 0.005000
vt 0.120166 0.005002
vt 0.120137 0.981043
vt 0.055704 0.981041
vt 0.893560 0.016442
vt 0.947902 0.016442
vt 0.947902 0.070783
vt 0.893560 0.070783
vt 0.228231 0.981047
vt 0.163798 0.981045
vt 0.163827 0.005003
vt 0.228260 0.005005
vt 0.012072 0.004999
vt 0.012043 0.981040

# vertex normals
vn 0.000000 0.000000 1.000000
vn 0.000000 1.000000 0.000000
vn 0.000000 0.000000 -1.000000
vn 0.000000 0.000000 -1.000000
vn 0.000000 -1.000000 0.000000
vn 0.905737 -0.423840 0.000000
vn 0.966532 -0.256547 -0.000000
vn 0.966532 -0.256547 -0.000000
vn -0.973397 0.229123 0.000001
vn -0.995807 0.091481 0.000000
vn -0.995807 0.091481 0.000000
vn -0.994698 -0.102836 0.000000
vn -0.989917 -0.141652 0.000000
vn 0.949630 0.313372 0.000000
vn 0.930081 0.367355 0.000000
vn 0.000000 0.000000 1.000000
vn -0.999970 -0.007688 0.000000
vn -0.998564 -0.053564 0.000000
vn 0.999618 0.027638 0.000000
vn 0.968441 0.249242 0.000000
vn -0.999728 0.023325 0.000000
vn 0.985603 -0.169075 -0.000000
vn 1.000000 0.000000 0.000000
vn -1.000000 0.000000 0.000000

# Mesh
g cartel
usemtl Cartel
f 4/4/1 1/1/1 2/2/1
f 2/2/1 3/3/1 4/4/1
f 8/8/2 5/5/2 6/6/2
f 6/6/2 7/7/2 8/8/2
f 12/12/3 9/9/3 10/10/3
f 10/10/3 11/11/4 12/12/3
f 1/16/5 12/13/5 11/14/5
f 11/14/5 2/15/5 1/16/5
f 3/20/8 2/17/6 11/18/6
f 11/18/6 10/19/7 3/20/8
f 9/24/11 12/21/9 1/22/9
f 1/22/9 4/23/10 9/24/11
f 8/28/13 13/25/12 14/26/12
f 14/26/12 5/27/13 8/28/13
f 13/32/3 8/29/4 7/30/3
f 7/30/3 15/31/3 13/32/3
f 6/36/15 16/33/14 15/34/14
f 15/34/14 7/35/15 6/36/15
f 5/40/16 14/37/1 16/38/1
f 16/38/1 6/39/1 5/40/16
f 20/44/18 17/41/17 18/42/17
f 18/42/17 19/43/18 20/44/18
f 17/48/3 20/45/3 21/46/3
f 21/46/3 22/47/3 17/48/3
f 24/52/20 23/49/19 22/50/19
f 22/50/19 21/51/20 24/52/20
f 19/56/1 18/53/1 23/54/1
f 23/54/1 24/55/1 19/56/1
f 17/41/17 25/57/21 26/58/21
f 26/58/21 18/42/17 17/41/17
f 25/60/3 17/48/3 22/47/3
f 22/47/3 27/59/3 25/60/3
f 23/49/19 28/61/22 27/62/22
f 27/62/22 22/50/19 23/49/19
f 18/53/1 26/63/1 28/64/1
f 28/64/1 23/54/1 18/53/1
f 13/25/12 20/44/18 19/43/18
f 19/43/18 14/26/12 13/25/12
f 14/37/1 19/56/1 24/55/1
f 24/55/1 16/38/1 14/37/1
f 16/33/14 24/52/20 21/51/20
f 21/51/20 15/34/14 16/33/14
f 20/45/3 13/32/3 15/31/3
f 15/31/3 21/46/3 20/45/3
f 25/57/21 9/24/11 4/23/10
f 4/23/10 26/58/21 25/57/21
f 9/9/3 25/60/3 27/59/3
f 27/59/3 10/10/3 9/9/3
f 28/61/22 3/20/8 10/19/7
f 10/19/7 27/62/22 28/61/22
f 26/63/1 4/4/1 3/3/1
f 3/3/1 28/64/1 26/63/1

# Mesh
g palo
usemtl Palo
f 32/68/1 29/65/1 30/66/1
f 30/66/1 31/67/1 32/68/1
f 34/72/2 32/69/2 31/70/2
f 31/70/2 33/71/2 34/72/2
f 36/76/3 34/73/3 33/74/3
f 33/74/3 35/75/3 36/76/3
f 31/67/23 30/66/23 35/75/23
f 35/75/23 33/74/23 31/67/23
f 34/78/24 36/77/24 29/65/24
f 29/65/24 32/68/24 34/78/24
