# This file uses meters as units for non-parametric coordinates.

mtllib jarron.mtl
g default
v 973.974453 -74.208412 -112.766354
v 952.239285 -74.208412 -121.769345
v 930.504116 -74.208412 -112.766354
v 921.501126 -74.208412 -91.031216
v 930.504116 -74.208412 -69.296078
v 952.239285 -74.208412 -60.293084
v 973.974453 -74.208412 -69.296071
v 982.977444 -74.208412 -91.031216
v 992.400601 -56.796661 -131.192517
v 952.239285 -56.796661 -147.827877
v 912.077969 -56.796661 -131.192517
v 895.442654 -56.796661 -91.031216
v 912.077969 -56.796661 -50.869915
v 952.239285 -56.796661 -34.234559
v 992.400601 -56.796661 -50.869912
v 1009.035916 -56.796661 -91.031216
v 992.400601 56.796661 -131.192517
v 952.239285 56.796661 -147.827877
v 912.077969 56.796661 -131.192517
v 895.442654 56.796661 -91.031216
v 912.077969 56.796661 -50.869915
v 952.239285 56.796661 -34.234559
v 992.400601 56.796661 -50.869912
v 1009.035916 56.796661 -91.031216
v 952.239285 -80.322609 -91.031216
v 969.587063 128.453079 -108.378987
v 952.239285 128.453079 -115.564679
v 934.891507 128.453079 -108.378987
v 927.705838 128.453079 -91.031216
v 934.891507 128.453079 -73.683445
v 952.239285 128.453079 -66.497761
v 969.587063 128.453079 -73.683445
v 976.772732 128.453079 -91.031216
v 975.437161 141.998123 -114.229084
v 952.239285 141.998123 -123.837964
v 929.041409 141.998123 -114.229084
v 919.432522 141.998123 -91.031216
v 929.041409 141.998123 -67.833348
v 952.239285 141.998123 -58.224472
v 975.437161 141.998123 -67.833348
v 985.046048 141.998123 -91.031216
v 964.498379 131.190643 -103.290326
v 952.239285 131.190643 -108.368206
v 939.980191 131.190643 -103.290326
v 934.902310 131.190643 -91.031216
v 939.980191 131.190643 -78.772107
v 952.239285 131.190643 -73.694226
v 964.498379 131.190643 -78.772107
v 969.576260 131.190643 -91.031216
v 964.498379 98.158722 -103.290326
v 952.239285 98.158722 -108.368206
v 939.980191 98.158722 -103.290326
v 934.902310 98.158722 -91.031216
v 939.980191 98.158722 -78.772107
v 952.239285 98.158722 -73.694226
v 964.498379 98.158722 -78.772107
v 969.576260 98.158722 -91.031216
v 1006.830532 15.679916 -145.622464
v 998.557217 43.766094 -137.349118
v 952.239285 15.679920 -168.234890
v 952.239285 43.766090 -156.534619
v 897.648037 15.679919 -145.622464
v 905.921353 43.766090 -137.349118
v 875.035611 15.679927 -91.031216
v 886.735928 43.766087 -91.031216
v 897.648037 15.679916 -36.439976
v 905.921353 43.766094 -44.713318
v 952.239285 15.679919 -13.827542
v 952.239285 43.766090 -25.527813
v 1006.830532 15.679918 -36.439972
v 998.557217 43.766090 -44.713311
v 1029.442898 15.679927 -91.031216
v 1017.742642 43.766087 -91.031216
v 1007.933316 -7.839173 -146.725277
v 1007.933316 7.839174 -146.725277
v 952.239285 -7.839173 -169.794506
v 952.239285 7.839174 -169.794506
v 896.545254 -7.839173 -146.725277
v 896.545254 7.839174 -146.725277
v 873.475979 -7.839173 -91.031216
v 873.475979 7.839174 -91.031216
v 896.545254 -7.839173 -35.337159
v 896.545254 7.839174 -35.337159
v 952.239285 -7.839173 -12.267926
v 952.239285 7.839174 -12.267926
v 1007.933316 -7.839173 -35.337155
v 1007.933316 7.839174 -35.337155
v 1031.002590 -7.839176 -91.031216
v 1031.002590 7.839171 -91.031216
v 1000.032803 -40.642921 -138.824734
v 1006.322781 -19.289797 -145.114712
v 952.239285 -40.642918 -158.621457
v 952.239285 -19.289801 -167.516842
v 904.445767 -40.642918 -138.824734
v 898.155789 -19.289799 -145.114712
v 884.649075 -40.642918 -91.031216
v 875.753689 -19.289806 -91.031216
v 904.445767 -40.642921 -43.237702
v 898.155789 -19.289797 -36.947716
v 952.239285 -40.642918 -23.440976
v 952.239285 -19.289801 -14.545598
v 1000.032803 -40.642918 -43.237694
v 1006.322781 -19.289799 -36.947712
v 1019.829495 -40.642918 -91.031216
v 1028.724881 -19.289806 -91.031216
v 975.128262 91.099884 -113.920163
v 969.587063 115.277603 -108.378987
v 952.239285 91.099876 -123.401089
v 952.239285 115.277603 -115.564679
v 929.350308 91.099884 -113.920163
v 934.891507 115.277603 -108.378987
v 919.869412 91.099876 -91.031216
v 927.705838 115.277603 -91.031216
v 929.350308 91.099884 -68.142270
v 934.891507 115.277603 -73.683445
v 952.239285 91.099876 -58.661351
v 952.239285 115.277603 -66.497761
v 975.128262 91.099884 -68.142270
v 969.587063 115.277603 -73.683445
v 984.609158 91.099876 -91.031216
v 976.772732 115.277603 -91.031216
vt 0.043929 0.045741
vt 0.090381 0.001846
vt 0.145174 0.001846
vt 0.199968 0.001846
vt 0.188908 0.512749
vt 0.145174 0.546896
vt 0.086693 0.546896
vt 0.203655 0.546896
vt 0.336467 0.045741
vt 0.382919 0.001846
vt 0.437712 0.001846
vt 0.492506 0.001846
vt 0.481445 0.512749
vt 0.437712 0.546896
vt 0.379231 0.546896
vt 0.496193 0.546896
vt 0.290908 0.578463
vt 0.290908 0.609368
vt 0.207635 0.609368
vt 0.207635 0.578463
vt 0.318153 0.550887
vt 0.318153 0.609368
vt 0.290908 0.640273
vt 0.207635 0.640273
vt 0.318153 0.667849
vt 0.085264 0.699417
vt 0.085264 0.730322
vt 0.001992 0.730322
vt 0.001992 0.699417
vt 0.112510 0.671841
vt 0.112510 0.730322
vt 0.085264 0.761226
vt 0.001992 0.761226
vt 0.112510 0.788803
vt 0.573225 0.660474
vt 0.628018 0.683170
vt 0.573225 0.737964
vt 0.674470 0.636719
vt 0.650715 0.737964
vt 0.518431 0.683170
vt 0.628018 0.792758
vt 0.495735 0.737964
vt 0.573225 0.815454
vt 0.518431 0.792757
vt 0.471979 0.839209
vt 0.811092 0.475447
vt 0.854826 0.441300
vt 0.913307 0.441300
vt 0.796345 0.441300
vt 0.775737 0.403162
vt 0.732004 0.437308
vt 0.673523 0.437308
vt 0.790485 0.437308
vt 0.407561 0.578463
vt 0.407561 0.609368
vt 0.324288 0.609368
vt 0.324288 0.578463
vt 0.434806 0.550887
vt 0.434806 0.609368
vt 0.407561 0.640273
vt 0.324288 0.640273
vt 0.434806 0.667849
vt 0.118228 0.640273
vt 0.118228 0.609368
vt 0.201500 0.609368
vt 0.201500 0.640273
vt 0.090983 0.667849
vt 0.090983 0.609368
vt 0.118228 0.578463
vt 0.201500 0.578463
vt 0.090983 0.550887
vt 0.575335 0.228452
vt 0.971592 0.688940
vt 0.717203 0.759744
vt 0.028409 0.299256
vt 0.282797 0.228452
vt 0.615238 0.189669
vt 0.869627 0.118865
vt 0.320946 0.299256
vt 0.854826 0.688940
vt 0.956071 0.656090
vt 0.738060 0.688940
vt 0.145174 0.299256
vt 0.043929 0.332106
vt 0.261940 0.299256
vt 0.732004 0.189669
vt 0.630759 0.222519
vt 0.848770 0.189669
vt 0.437712 0.299256
vt 0.336467 0.332106
vt 0.554478 0.299256
vt 0.578115 0.169161
vt 0.995228 0.779510
vt 0.714423 0.819035
vt 0.004772 0.208686
vt 0.285577 0.169161
vt 0.591601 0.099098
vt 0.872407 0.059574
vt 0.297309 0.208686
vt 0.854826 0.779510
vt 0.992448 0.759744
vt 0.714423 0.779510
vt 0.854826 0.759744
vt 0.145174 0.208686
vt 0.007552 0.228452
vt 0.285577 0.208686
vt 0.145174 0.228452
vt 0.732004 0.099098
vt 0.594381 0.118865
vt 0.872407 0.099098
vt 0.732004 0.118865
vt 0.437712 0.208686
vt 0.300090 0.228452
vt 0.578115 0.208686
vt 0.437712 0.228452
vt 0.558198 0.086464
vt 0.702245 0.605412
vt 0.575785 0.551948
vt 0.570728 0.553004
vt 0.452739 0.617478
vt 0.443502 0.604620
vt 0.008832 0.140294
vt 0.265660 0.086464
vt 0.444204 0.870516
vt 0.570664 0.923980
vt 0.575722 0.922924
vt 0.693710 0.858450
vt 0.702948 0.871308
vt 0.301370 0.140294
vt 0.573225 0.594781
vt 0.693711 0.617478
vt 0.471979 0.636719
vt 0.573225 0.567571
vt 0.145174 0.045741
vt 0.024689 0.086464
vt 0.246420 0.045741
vt 0.145174 0.086464
vt 0.573225 0.881146
vt 0.452739 0.858450
vt 0.674470 0.839209
vt 0.573225 0.908357
vt 0.437712 0.045741
vt 0.317226 0.086464
vt 0.538957 0.045741
vt 0.437712 0.086464
vt 0.991168 0.847901
vt 0.854826 0.847901
vt 0.995228 0.819035
vt 0.718483 0.847901
vt 0.854826 0.819035
vt 0.145174 0.140294
vt 0.004772 0.169161
vt 0.281517 0.140294
vt 0.145174 0.169161
vt 0.595661 0.030707
vt 0.732004 0.030707
vt 0.591601 0.059574
vt 0.868347 0.030707
vt 0.732004 0.059574
vt 0.437712 0.140294
vt 0.297309 0.169161
vt 0.574055 0.140294
vt 0.437712 0.169161
vt 0.495414 0.418583
vt 0.898559 0.508662
vt 0.797123 0.569613
vt 0.101441 0.479534
vt 0.202877 0.418583
vt 0.688271 0.369947
vt 0.789706 0.308996
vt 0.393979 0.479534
vt 0.854826 0.656090
vt 0.912528 0.569613
vt 0.753580 0.656090
vt 0.854826 0.569613
vt 0.145174 0.332106
vt 0.087472 0.418583
vt 0.246420 0.332106
vt 0.145174 0.418583
vt 0.732004 0.222519
vt 0.674302 0.308996
vt 0.833249 0.222519
vt 0.732004 0.308996
vt 0.437712 0.332106
vt 0.380010 0.418583
vt 0.538957 0.332106
vt 0.437712 0.418583
vt 0.854826 0.508662
vt 0.898559 0.475447
vt 0.811092 0.508662
vt 0.854826 0.475447
vt 0.145174 0.479534
vt 0.101441 0.512749
vt 0.188908 0.479534
vt 0.145174 0.512749
vt 0.732004 0.369947
vt 0.688271 0.403162
vt 0.775737 0.369947
vt 0.732004 0.403162
vt 0.437712 0.479534
vt 0.393979 0.512749
vt 0.481445 0.479534
vt 0.437712 0.512749
vn 0.224263 -0.810291 -0.541419
vn 0.224263 -0.810291 -0.541419
vn 0.286943 -0.661645 -0.692741
vn 0.286943 -0.661645 -0.692741
vn -0.224263 -0.810291 -0.541419
vn -0.224263 -0.810291 -0.541419
vn -0.286943 -0.661645 -0.692741
vn -0.286943 -0.661645 -0.692741
vn -0.541420 -0.810291 -0.224263
vn -0.541420 -0.810291 -0.224263
vn -0.692742 -0.661644 -0.286942
vn -0.692742 -0.661644 -0.286942
vn -0.541420 -0.810291 0.224263
vn -0.541420 -0.810291 0.224263
vn -0.692742 -0.661644 0.286942
vn -0.692742 -0.661644 0.286942
vn -0.224263 -0.810291 0.541419
vn -0.224263 -0.810291 0.541419
vn -0.286943 -0.661645 0.692741
vn -0.286943 -0.661645 0.692741
vn 0.224263 -0.810291 0.541419
vn 0.224263 -0.810291 0.541419
vn 0.286943 -0.661645 0.692741
vn 0.286943 -0.661645 0.692741
vn 0.541420 -0.810291 0.224263
vn 0.541420 -0.810291 0.224263
vn 0.692742 -0.661644 0.286942
vn 0.692742 -0.661644 0.286942
vn 0.541420 -0.810291 -0.224263
vn 0.541420 -0.810291 -0.224263
vn 0.692742 -0.661644 -0.286942
vn 0.692742 -0.661644 -0.286942
vn 0.080546 -0.977599 -0.194457
vn 0.080546 -0.977599 -0.194456
vn 0.080546 -0.977599 -0.194457
vn -0.080546 -0.977599 -0.194456
vn -0.080546 -0.977599 -0.194457
vn -0.080546 -0.977599 -0.194457
vn -0.194456 -0.977599 -0.080546
vn -0.194456 -0.977599 -0.080546
vn -0.194456 -0.977599 -0.080546
vn -0.194456 -0.977599 0.080546
vn -0.194456 -0.977599 0.080546
vn -0.194456 -0.977599 0.080546
vn -0.080546 -0.977599 0.194456
vn -0.080546 -0.977599 0.194456
vn -0.080546 -0.977599 0.194456
vn 0.080546 -0.977599 0.194456
vn 0.080546 -0.977599 0.194456
vn 0.080546 -0.977599 0.194456
vn 0.194456 -0.977599 0.080546
vn 0.194456 -0.977599 0.080546
vn 0.194456 -0.977599 0.080546
vn 0.194456 -0.977599 -0.080546
vn 0.194456 -0.977599 -0.080546
vn 0.194456 -0.977599 -0.080546
vn 0.363979 -0.308813 -0.878723
vn 0.363979 -0.308813 -0.878723
vn 0.333280 -0.491454 -0.804610
vn 0.333280 -0.491454 -0.804610
vn -0.363979 -0.308813 -0.878723
vn -0.363979 -0.308813 -0.878723
vn -0.333280 -0.491454 -0.804610
vn -0.333280 -0.491454 -0.804610
vn -0.878723 -0.308814 -0.363978
vn -0.878723 -0.308814 -0.363978
vn -0.804610 -0.491455 -0.333280
vn -0.804610 -0.491455 -0.333280
vn -0.878723 -0.308814 0.363979
vn -0.878723 -0.308814 0.363979
vn -0.804610 -0.491455 0.333280
vn -0.804610 -0.491455 0.333280
vn -0.363979 -0.308813 0.878723
vn -0.363979 -0.308813 0.878723
vn -0.333280 -0.491454 0.804610
vn -0.333280 -0.491454 0.804610
vn 0.363979 -0.308813 0.878723
vn 0.363979 -0.308813 0.878723
vn 0.333280 -0.491454 0.804610
vn 0.333280 -0.491454 0.804610
vn 0.878723 -0.308814 0.363978
vn 0.878723 -0.308814 0.363978
vn 0.804610 -0.491455 0.333280
vn 0.804610 -0.491455 0.333280
vn 0.878723 -0.308814 -0.363979
vn 0.878723 -0.308814 -0.363979
vn 0.804610 -0.491455 -0.333280
vn 0.804610 -0.491455 -0.333280
vn -0.230816 0.797627 0.557238
vn -0.230816 0.797627 0.557238
vn -0.230816 0.797627 0.557238
vn -0.230816 0.797628 0.557238
vn 0.230816 0.797627 0.557238
vn 0.230816 0.797627 0.557238
vn 0.230816 0.797628 0.557238
vn 0.230816 0.797627 0.557238
vn 0.557238 0.797628 0.230816
vn 0.557238 0.797628 0.230816
vn 0.557238 0.797628 0.230816
vn 0.557238 0.797628 0.230816
vn 0.557238 0.797628 -0.230816
vn 0.557238 0.797628 -0.230816
vn 0.557238 0.797628 -0.230816
vn 0.557238 0.797628 -0.230816
vn 0.230816 0.797627 -0.557239
vn 0.230816 0.797627 -0.557239
vn 0.230816 0.797627 -0.557239
vn 0.230816 0.797627 -0.557238
vn -0.230816 0.797627 -0.557239
vn -0.230816 0.797627 -0.557239
vn -0.230816 0.797627 -0.557238
vn -0.230816 0.797627 -0.557239
vn -0.557238 0.797628 -0.230816
vn -0.557238 0.797628 -0.230816
vn -0.557238 0.797628 -0.230816
vn -0.557238 0.797628 -0.230816
vn -0.557238 0.797628 0.230816
vn -0.557238 0.797628 0.230816
vn -0.557238 0.797628 0.230816
vn -0.557238 0.797628 0.230816
vn -0.382683 0.000000 0.923880
vn -0.382683 0.000000 0.923880
vn -0.382683 0.000000 0.923880
vn -0.382683 0.000000 0.923880
vn 0.382683 0.000000 0.923880
vn 0.382683 0.000000 0.923880
vn 0.382683 0.000000 0.923880
vn 0.382683 0.000000 0.923880
vn 0.923880 0.000000 0.382683
vn 0.923880 0.000000 0.382683
vn 0.923880 0.000000 0.382683
vn 0.923880 0.000000 0.382683
vn 0.923880 0.000000 -0.382683
vn 0.923880 0.000000 -0.382683
vn 0.923880 0.000000 -0.382683
vn 0.923880 0.000000 -0.382683
vn 0.382683 0.000000 -0.923880
vn 0.382683 0.000000 -0.923880
vn 0.382683 0.000000 -0.923880
vn 0.382683 0.000000 -0.923880
vn -0.382683 0.000000 -0.923880
vn -0.382683 0.000000 -0.923880
vn -0.382683 0.000000 -0.923880
vn -0.382683 0.000000 -0.923880
vn -0.923880 0.000000 -0.382683
vn -0.923880 0.000000 -0.382683
vn -0.923880 0.000000 -0.382683
vn -0.923880 0.000000 -0.382683
vn -0.923880 0.000000 0.382683
vn -0.923880 0.000000 0.382683
vn -0.923880 0.000000 0.382683
vn -0.923880 0.000000 0.382683
vn 0.876707 0.315455 -0.363143
vn 0.845516 0.403046 -0.350223
vn 0.845516 0.403046 -0.350223
vn 0.876707 0.315455 -0.363143
vn 0.350224 0.403046 -0.845516
vn 0.363144 0.315455 -0.876707
vn 0.363144 0.315455 -0.876707
vn 0.350224 0.403046 -0.845516
vn -0.350224 0.403046 -0.845516
vn -0.363144 0.315455 -0.876707
vn -0.363144 0.315455 -0.876707
vn -0.350224 0.403046 -0.845516
vn -0.845516 0.403047 -0.350223
vn -0.876707 0.315455 -0.363143
vn -0.876707 0.315455 -0.363144
vn -0.845516 0.403047 -0.350223
vn -0.845516 0.403047 0.350223
vn -0.876707 0.315455 0.363143
vn -0.876707 0.315455 0.363144
vn -0.845516 0.403046 0.350223
vn -0.350224 0.403046 0.845516
vn -0.363144 0.315455 0.876707
vn -0.363144 0.315455 0.876707
vn -0.350224 0.403046 0.845516
vn 0.350224 0.403046 0.845516
vn 0.363144 0.315455 0.876707
vn 0.363144 0.315455 0.876707
vn 0.350224 0.403046 0.845516
vn 0.845516 0.403046 0.350223
vn 0.876707 0.315455 0.363143
vn 0.876707 0.315455 0.363143
vn 0.845516 0.403046 0.350223
vn 0.322131 0.539837 -0.777694
vn 0.322131 0.539837 -0.777694
vn -0.322131 0.539837 -0.777694
vn -0.322131 0.539837 -0.777694
vn -0.777694 0.539837 -0.322131
vn -0.777694 0.539837 -0.322131
vn -0.777694 0.539837 0.322131
vn -0.777694 0.539837 0.322131
vn -0.322131 0.539837 0.777694
vn -0.322131 0.539837 0.777694
vn 0.322131 0.539837 0.777694
vn 0.322131 0.539837 0.777694
vn 0.777694 0.539837 0.322131
vn 0.777694 0.539837 0.322131
vn 0.777694 0.539837 -0.322131
vn 0.777694 0.539837 -0.322131
vn 0.921309 -0.074536 -0.381619
vn 0.922281 0.058791 -0.382022
vn 0.922281 0.058791 -0.382022
vn 0.921309 -0.074536 -0.381619
vn 0.382022 0.058790 -0.922282
vn 0.381619 -0.074535 -0.921310
vn 0.381619 -0.074535 -0.921310
vn 0.382022 0.058790 -0.922282
vn -0.382022 0.058790 -0.922282
vn -0.381619 -0.074535 -0.921310
vn -0.381619 -0.074535 -0.921310
vn -0.382022 0.058790 -0.922282
vn -0.922281 0.058790 -0.382022
vn -0.921309 -0.074536 -0.381619
vn -0.921309 -0.074536 -0.381619
vn -0.922281 0.058790 -0.382022
vn -0.922281 0.058790 0.382022
vn -0.921309 -0.074536 0.381619
vn -0.921309 -0.074536 0.381619
vn -0.922281 0.058790 0.382022
vn -0.382022 0.058790 0.922282
vn -0.381619 -0.074535 0.921310
vn -0.381619 -0.074535 0.921310
vn -0.382022 0.058790 0.922282
vn 0.382022 0.058790 0.922282
vn 0.381619 -0.074535 0.921310
vn 0.381619 -0.074535 0.921310
vn 0.382022 0.058790 0.922282
vn 0.922281 0.058791 0.382022
vn 0.921309 -0.074536 0.381619
vn 0.921309 -0.074536 0.381619
vn 0.922281 0.058791 0.382022
vn 0.838076 -0.420858 -0.347142
vn 0.883857 -0.291142 -0.366105
vn 0.883857 -0.291142 -0.366105
vn 0.838076 -0.420858 -0.347142
vn 0.366106 -0.291142 -0.883857
vn 0.347142 -0.420858 -0.838076
vn 0.347142 -0.420858 -0.838076
vn 0.366106 -0.291142 -0.883857
vn -0.366106 -0.291142 -0.883857
vn -0.347142 -0.420858 -0.838076
vn -0.347142 -0.420858 -0.838076
vn -0.366106 -0.291142 -0.883857
vn -0.883857 -0.291142 -0.366105
vn -0.838076 -0.420858 -0.347142
vn -0.838076 -0.420858 -0.347142
vn -0.883857 -0.291142 -0.366105
vn -0.883857 -0.291142 0.366105
vn -0.838076 -0.420858 0.347142
vn -0.838076 -0.420858 0.347142
vn -0.883857 -0.291142 0.366105
vn -0.366106 -0.291142 0.883857
vn -0.347142 -0.420858 0.838076
vn -0.347142 -0.420858 0.838076
vn -0.366106 -0.291142 0.883857
vn 0.366105 -0.291142 0.883857
vn 0.347142 -0.420858 0.838076
vn 0.347142 -0.420858 0.838076
vn 0.366105 -0.291142 0.883857
vn 0.883857 -0.291142 0.366105
vn 0.838076 -0.420858 0.347142
vn 0.838076 -0.420858 0.347142
vn 0.883857 -0.291142 0.366105
vn 0.805328 0.490074 -0.333577
vn 0.904451 0.204001 -0.374635
vn 0.904451 0.204001 -0.374635
vn 0.805328 0.490074 -0.333577
vn 0.374636 0.204001 -0.904451
vn 0.333578 0.490074 -0.805328
vn 0.333578 0.490074 -0.805328
vn 0.374636 0.204001 -0.904451
vn -0.374636 0.204001 -0.904451
vn -0.333578 0.490074 -0.805328
vn -0.333578 0.490074 -0.805328
vn -0.374636 0.204001 -0.904451
vn -0.904451 0.204001 -0.374635
vn -0.805328 0.490074 -0.333577
vn -0.805328 0.490074 -0.333577
vn -0.904451 0.204001 -0.374635
vn -0.904451 0.204001 0.374635
vn -0.805328 0.490074 0.333577
vn -0.805328 0.490074 0.333577
vn -0.904451 0.204001 0.374635
vn -0.374636 0.204001 0.904451
vn -0.333578 0.490074 0.805328
vn -0.333578 0.490074 0.805328
vn -0.374636 0.204001 0.904451
vn 0.374636 0.204001 0.904451
vn 0.333578 0.490074 0.805328
vn 0.333578 0.490074 0.805328
vn 0.374636 0.204001 0.904451
vn 0.904451 0.204001 0.374635
vn 0.805328 0.490074 0.333577
vn 0.805328 0.490074 0.333577
vn 0.904451 0.204001 0.374635
s 1
g pSphere1
usemtl initialShadingGroup
f 1/36/1 2/35/2 10/130/3 9/38/4
s 2
f 2/35/5 3/40/6 11/132/7 10/130/8
s 3
f 3/2/9 4/3/10 12/134/11 11/1/12
s 4
f 4/3/13 5/4/14 13/136/15 12/134/16
s 5
f 5/44/17 6/43/18 14/138/19 13/45/20
s 6
f 6/43/21 7/41/22 15/140/23 14/138/24
s 7
f 7/10/25 8/11/26 16/142/27 15/9/28
s 8
f 8/11/29 1/12/30 9/144/31 16/142/32
s off
f 2/35/33 1/36/34 25/37/35
f 3/40/36 2/35/37 25/37/38
f 4/42/39 3/40/40 25/37/41
f 5/44/42 4/42/43 25/37/44
f 6/43/45 5/44/46 25/37/47
f 7/41/48 6/43/49 25/37/50
f 8/39/51 7/41/52 25/37/53
f 1/36/54 8/39/55 25/37/56
s 1
f 26/189/57 27/191/58 35/47/59 34/48/60
s 2
f 27/191/61 28/46/62 36/49/63 35/47/64
s 3
f 28/193/65 29/195/66 37/6/67 36/7/68
s 4
f 29/195/69 30/5/70 38/8/71 37/6/72
s 5
f 30/197/73 31/199/74 39/51/75 38/52/76
s 6
f 31/199/77 32/50/78 40/53/79 39/51/80
s 7
f 32/201/81 33/203/82 41/14/83 40/15/84
s 8
f 33/203/85 26/13/86 34/16/87 41/14/88
s off
f 34/58/89 35/59/90 43/55/91 42/54/92
f 35/59/93 36/62/94 44/60/95 43/55/96
f 36/21/97 37/22/98 45/18/99 44/17/100
f 37/22/101 38/25/102 46/23/103 45/18/104
f 38/67/105 39/68/106 47/64/107 46/63/108
f 39/68/109 40/71/110 48/69/111 47/64/112
f 40/30/113 41/31/114 49/27/115 48/26/116
f 41/31/117 34/34/118 42/32/119 49/27/120
f 42/54/121 43/55/122 51/56/123 50/57/124
f 43/55/125 44/60/126 52/61/127 51/56/128
f 44/17/129 45/18/130 53/19/131 52/20/132
f 45/18/133 46/23/134 54/24/135 53/19/136
f 46/63/137 47/64/138 55/65/139 54/66/140
f 47/64/141 48/69/142 56/70/143 55/65/144
f 48/26/145 49/27/146 57/28/147 56/29/148
f 49/27/149 42/32/150 50/33/151 57/28/152
s 8
f 58/72/153 59/91/154 73/89/155 72/115/156
s 1
f 59/73/157 58/101/158 60/103/159 61/80/160
s 2
f 61/80/161 60/103/162 62/74/163 63/82/164
s 3
f 63/75/165 62/105/166 64/107/167 65/83/168
s 4
f 65/83/169 64/107/170 66/76/171 67/85/172
s 5
f 67/77/173 66/109/174 68/111/175 69/86/176
s 6
f 69/86/177 68/111/178 70/78/179 71/88/180
s 7
f 71/79/181 70/113/182 72/115/183 73/89/184
s 1
f 59/73/157 61/80/160 18/172/185 17/81/186
s 2
f 61/80/161 63/82/164 19/174/187 18/172/188
s 3
f 63/75/165 65/83/168 20/176/189 19/84/190
s 4
f 65/83/169 67/85/172 21/178/191 20/176/192
s 5
f 67/77/173 69/86/176 22/180/193 21/87/194
s 6
f 69/86/177 71/88/180 23/182/195 22/180/196
s 7
f 71/79/181 73/89/184 24/184/197 23/90/198
s 8
f 73/89/155 59/91/154 17/186/199 24/184/200
f 74/92/201 75/114/202 89/112/203 88/163/204
s 1
f 75/93/205 74/148/206 76/150/207 77/100/208
s 2
f 77/100/209 76/150/210 78/94/211 79/102/212
s 3
f 79/95/213 78/152/214 80/154/215 81/104/216
s 4
f 81/104/217 80/154/218 82/96/219 83/106/220
s 5
f 83/97/221 82/157/222 84/159/223 85/108/224
s 6
f 85/108/225 84/159/226 86/98/227 87/110/228
s 7
f 87/99/229 86/161/230 88/163/231 89/112/232
s 1
f 75/93/205 77/100/208 60/103/159 58/101/158
s 2
f 77/100/209 79/102/212 62/74/163 60/103/162
s 3
f 79/95/213 81/104/216 64/107/167 62/105/166
s 4
f 81/104/217 83/106/220 66/76/171 64/107/170
s 5
f 83/97/221 85/108/224 68/111/175 66/109/174
s 6
f 85/108/225 87/110/228 70/78/179 68/111/178
s 7
f 87/99/229 89/112/232 72/115/183 70/113/182
s 8
f 89/112/203 75/114/202 58/72/153 72/115/156
f 90/116/233 91/162/234 105/160/235 104/145/236
s 1
f 91/117/237 90/131/238 92/133/239 93/118/240
s 2
f 93/119/241 92/133/242 94/120/243 95/121/244
s 3
f 95/122/245 94/135/246 96/137/247 97/151/248
s 4
f 97/151/249 96/137/250 98/123/251 99/153/252
s 5
f 99/124/253 98/139/254 100/141/255 101/125/256
s 6
f 101/126/257 100/141/258 102/127/259 103/128/260
s 7
f 103/129/261 102/143/262 104/145/263 105/160/264
s 1
f 9/38/4 10/130/3 92/133/239 90/131/238
s 2
f 10/130/8 11/132/7 94/120/243 92/133/242
s 3
f 11/1/12 12/134/11 96/137/247 94/135/246
s 4
f 12/134/16 13/136/15 98/123/251 96/137/250
s 5
f 13/45/20 14/138/19 100/141/255 98/139/254
s 6
f 14/138/24 15/140/23 102/127/259 100/141/258
s 7
f 15/9/28 16/142/27 104/145/263 102/143/262
s 8
f 16/142/32 9/144/31 90/116/233 104/145/236
s 1
f 91/146/237 93/147/240 76/150/207 74/148/206
s 2
f 93/147/241 95/149/244 78/94/211 76/150/210
s 3
f 95/122/245 97/151/248 80/154/215 78/152/214
s 4
f 97/151/249 99/153/252 82/96/219 80/154/218
s 5
f 99/155/253 101/156/256 84/159/223 82/157/222
s 6
f 101/156/257 103/158/260 86/98/227 84/159/226
s 7
f 103/129/261 105/160/264 88/163/231 86/161/230
s 8
f 105/160/235 91/162/234 74/92/201 88/163/204
f 106/164/265 107/202/266 121/200/267 120/187/268
s 1
f 107/165/269 106/173/270 108/175/271 109/188/272
s 2
f 109/188/273 108/175/274 110/166/275 111/190/276
s 3
f 111/167/277 110/177/278 112/179/279 113/192/280
s 4
f 113/192/281 112/179/282 114/168/283 115/194/284
s 5
f 115/169/285 114/181/286 116/183/287 117/196/288
s 6
f 117/196/289 116/183/290 118/170/291 119/198/292
s 7
f 119/171/293 118/185/294 120/187/295 121/200/296
s 1
f 17/81/186 18/172/185 108/175/271 106/173/270
s 2
f 18/172/188 19/174/187 110/166/275 108/175/274
s 3
f 19/84/190 20/176/189 112/179/279 110/177/278
s 4
f 20/176/192 21/178/191 114/168/283 112/179/282
s 5
f 21/87/194 22/180/193 116/183/287 114/181/286
s 6
f 22/180/196 23/182/195 118/170/291 116/183/290
s 7
f 23/90/198 24/184/197 120/187/295 118/185/294
s 8
f 24/184/200 17/186/199 106/164/265 120/187/268
s 1
f 107/165/269 109/188/272 27/191/58 26/189/57
s 2
f 109/188/273 111/190/276 28/46/62 27/191/61
s 3
f 111/167/277 113/192/280 29/195/66 28/193/65
s 4
f 113/192/281 115/194/284 30/5/70 29/195/69
s 5
f 115/169/285 117/196/288 31/199/74 30/197/73
s 6
f 117/196/289 119/198/292 32/50/78 31/199/77
s 7
f 119/171/293 121/200/296 33/203/82 32/201/81
s 8
f 121/200/267 107/202/266 26/13/86 33/203/85
