# This file uses meters as units for non-parametric coordinates.

mtllib mesa de madera.mtl
g default
v 192.215702 42.514477 115.274079
v 293.544208 42.514477 115.274079
v 192.215702 49.445915 115.274079
v 293.544208 49.445915 115.274079
v 192.215702 49.445915 -61.346848
v 293.544208 49.445915 -61.346848
v 192.215702 42.514477 -61.346848
v 293.544208 42.514477 -61.346848
v 194.903736 42.514477 -56.661451
v 290.856159 42.514477 -56.661451
v 290.856159 42.514477 110.588689
v 194.903736 42.514477 110.588689
v 194.903736 39.691509 -56.661451
v 290.856159 39.691509 -56.661451
v 290.856159 39.691509 110.588689
v 194.903736 39.691509 110.588689
v 297.058368 3.099290 -51.543828
v 287.385517 40.257351 -51.543828
v 282.551471 3.099290 -51.543828
v 272.878559 40.257351 -51.543828
v 282.551471 3.099290 -55.937482
v 272.878559 40.257351 -55.937482
v 297.058368 3.099290 -55.937482
v 287.385517 40.257351 -55.937482
v 205.707218 16.311333 -52.109396
v 280.150776 16.311333 -52.109396
v 205.707218 26.737972 -52.109396
v 280.150776 26.737972 -52.109396
v 205.707218 26.737972 -55.371913
v 280.150776 26.737972 -55.371913
v 205.707218 16.311333 -55.371913
v 280.150776 16.311333 -55.371913
v 188.995029 3.099290 -55.937482
v 198.667911 40.257351 -55.937482
v 203.501926 3.099290 -55.937482
v 213.174793 40.257351 -55.937482
v 203.501926 3.099290 -51.543828
v 213.174793 40.257351 -51.543828
v 188.995029 3.099290 -51.543828
v 198.667911 40.257351 -51.543828
v 297.058368 3.099290 109.898443
v 287.385517 40.257351 109.898443
v 282.551471 3.099290 109.898443
v 272.878559 40.257351 109.898443
v 282.551471 3.099290 105.504788
v 272.878559 40.257351 105.504788
v 297.058368 3.099290 105.504788
v 287.385517 40.257351 105.504788
v 205.707218 16.311333 109.332881
v 280.150776 16.311333 109.332881
v 205.707218 26.737972 109.332881
v 280.150776 26.737972 109.332881
v 205.707218 26.737972 106.070357
v 280.150776 26.737972 106.070357
v 205.707218 16.311333 106.070357
v 280.150776 16.311333 106.070357
v 188.995029 3.099290 105.504788
v 198.667911 40.257351 105.504788
v 203.501926 3.099290 105.504788
v 213.174793 40.257351 105.504788
v 203.501926 3.099290 109.898443
v 213.174793 40.257351 109.898443
v 188.995029 3.099290 109.898443
v 198.667911 40.257351 109.898443
v 236.682132 17.499079 106.767873
v 250.130955 17.499079 106.767873
v 236.682132 25.485071 106.767873
v 250.130955 25.485071 106.767873
v 236.682132 25.485071 -52.918990
v 250.130955 25.485071 -52.918990
v 236.682132 17.499079 -52.918990
v 250.130955 17.499079 -52.918990
vt 0.160285 0.579981
vt 0.003782 0.579954
vt 0.011232 0.574202
vt 0.152444 0.574756
vt 0.011715 0.020181
vt 0.152920 0.020770
vt 0.003882 0.014944
vt 0.160377 0.015028
vt 0.301217 0.524769
vt 0.168196 0.524599
vt 0.168273 0.002111
vt 0.301293 0.002285
vt 0.156122 0.000090
vt 0.000094 0.029945
vt 0.008050 0.594892
vt 0.164072 0.564981
vt 0.626058 0.000010
vt 0.626049 0.052656
vt 0.606798 0.057664
vt 0.606808 0.005018
vt 0.593156 0.057661
vt 0.593165 0.005015
vt 0.573907 0.052647
vt 0.639700 0.000012
vt 0.362495 0.102078
vt 0.362482 0.000007
vt 0.376778 0.000005
vt 0.376791 0.102076
vt 0.386908 0.000004
vt 0.338069 0.102081
vt 0.352351 0.000008
vt 0.352365 0.102079
vt 0.484248 0.057685
vt 0.484178 0.005039
vt 0.503421 0.000003
vt 0.437707 0.052736
vt 0.451280 0.000072
vt 0.451349 0.052718
vt 0.470536 0.005057
vt 0.470605 0.057703
vt 0.626056 0.000008
vt 0.626050 0.052654
vt 0.606800 0.057663
vt 0.606806 0.005016
vt 0.593158 0.057661
vt 0.593164 0.005015
vt 0.573909 0.052648
vt 0.639699 0.000009
vt 0.362485 0.102078
vt 0.362492 0.000007
vt 0.376788 0.000008
vt 0.376781 0.102079
vt 0.386919 0.000009
vt 0.338058 0.102076
vt 0.352362 0.000006
vt 0.352354 0.102077
vt 0.484213 0.057682
vt 0.484202 0.005036
vt 0.503450 0.000021
vt 0.437678 0.052682
vt 0.451309 0.000033
vt 0.451320 0.052679
vt 0.470559 0.005039
vt 0.470571 0.057685
vt 0.336045 0.499464
vt 0.317837 0.504409
vt 0.307362 0.500540
vt 0.325570 0.495594
vt 0.306726 0.998960
vt 0.325462 0.000656
vt 0.336681 0.001043
vt 0.317944 0.999347
vt 0.304396 0.526860
vt 0.304338 0.000004
vt 0.165097 0.000016
vt 0.165148 0.526877
vt 0.306608 0.000003
vt 0.336798 1.000000
vt 0.573917 0.000001
vt 0.639691 0.052658
vt 0.503490 0.052649
vt 0.437637 0.000090
vt 0.386922 0.102075
vt 0.338055 0.000010
vt 0.503461 0.052667
vt 0.437666 0.000036
vt 0.386911 0.102080
vt 0.338066 0.000005
vt 0.573915 0.000002
vt 0.639693 0.052655
vt 0.164159 0.030002
vt 0.155966 0.594922
vt 0.008219 0.000004
vt 0.000000 0.564978
vn 0.000000 0.000000 1.000000
vn 0.000000 0.000000 1.000000
vn 0.000000 0.000000 1.000000
vn 0.000000 0.000000 1.000000
vn 0.000000 1.000000 0.000000
vn 0.000000 1.000000 0.000000
vn 0.000000 1.000000 0.000000
vn 0.000000 1.000000 0.000000
vn 0.000000 0.000000 -1.000000
vn 0.000000 0.000000 -1.000000
vn 0.000000 0.000000 -1.000000
vn 0.000000 0.000000 -1.000000
vn 0.000000 -1.000000 0.000000
vn 0.000000 -1.000000 0.000000
vn 0.000000 -1.000000 0.000000
vn 0.000000 -1.000000 0.000000
vn 1.000000 0.000000 0.000000
vn 1.000000 0.000000 0.000000
vn 1.000000 0.000000 0.000000
vn 1.000000 0.000000 0.000000
vn -1.000000 0.000000 0.000000
vn -1.000000 0.000000 0.000000
vn -1.000000 0.000000 0.000000
vn -1.000000 0.000000 0.000000
vn 0.000000 -1.000000 0.000001
vn 0.000000 -1.000000 0.000001
vn 0.000000 -1.000000 0.000001
vn 0.000000 -1.000000 0.000001
vn 0.000000 -1.000000 0.000000
vn 0.000000 -1.000000 0.000000
vn 0.000000 -1.000000 0.000000
vn 0.000000 -1.000000 0.000000
vn 0.000000 -1.000000 -0.000000
vn 0.000000 -1.000000 -0.000000
vn 0.000000 -1.000000 -0.000000
vn 0.000000 -1.000000 -0.000000
vn 0.000000 -1.000000 0.000000
vn 0.000000 -1.000000 0.000000
vn 0.000000 -1.000000 0.000000
vn 0.000000 -1.000000 0.000000
vn 0.000000 0.000000 -1.000000
vn 0.000000 0.000000 -1.000000
vn 0.000000 0.000000 -1.000000
vn 0.000000 0.000000 -1.000000
vn 1.000000 0.000000 0.000000
vn 1.000000 0.000000 0.000000
vn 1.000000 0.000000 0.000000
vn 1.000000 0.000000 0.000000
vn 0.000000 0.000000 1.000000
vn 0.000000 0.000000 1.000000
vn 0.000000 0.000000 1.000000
vn 0.000000 0.000000 1.000000
vn -1.000000 0.000000 0.000000
vn -1.000000 0.000000 0.000000
vn -1.000000 0.000000 0.000000
vn -1.000000 0.000000 0.000000
vn 0.000000 0.000000 1.000000
vn 0.000000 0.000000 1.000000
vn 0.000000 0.000000 1.000000
vn 0.000000 0.000000 1.000000
vn -0.967748 -0.251922 0.000000
vn -0.967748 -0.251922 0.000000
vn -0.967748 -0.251922 0.000000
vn -0.967748 -0.251922 0.000000
vn 0.000000 0.000000 -1.000000
vn 0.000000 0.000000 -1.000000
vn 0.000000 0.000000 -1.000000
vn 0.000000 0.000000 -1.000000
vn 0.967748 0.251920 0.000000
vn 0.967748 0.251920 0.000000
vn 0.967748 0.251920 0.000000
vn 0.967748 0.251920 0.000000
vn 0.000000 0.000000 1.000000
vn 0.000000 0.000000 1.000000
vn 0.000000 0.000000 1.000000
vn 0.000000 0.000000 1.000000
vn 0.000000 1.000000 0.000000
vn 0.000000 1.000000 0.000000
vn 0.000000 1.000000 0.000000
vn 0.000000 1.000000 0.000000
vn 0.000000 0.000000 -1.000000
vn 0.000000 0.000000 -1.000000
vn 0.000000 0.000000 -1.000000
vn 0.000000 0.000000 -1.000000
vn 0.000000 -1.000000 0.000000
vn 0.000000 -1.000000 0.000000
vn 0.000000 -1.000000 0.000000
vn 0.000000 -1.000000 0.000000
vn 0.000000 0.000000 -1.000000
vn 0.000000 0.000000 -1.000000
vn 0.000000 0.000000 -1.000000
vn 0.000000 0.000000 -1.000000
vn 0.967748 -0.251921 0.000000
vn 0.967748 -0.251921 0.000000
vn 0.967748 -0.251921 0.000000
vn 0.967748 -0.251921 0.000000
vn 0.000000 0.000000 1.000000
vn 0.000000 0.000000 1.000000
vn 0.000000 0.000000 1.000000
vn 0.000000 0.000000 1.000000
vn -0.967748 0.251921 0.000000
vn -0.967748 0.251921 0.000000
vn -0.967748 0.251921 0.000000
vn -0.967748 0.251921 0.000000
vn 0.000000 0.000000 1.000000
vn 0.000000 0.000000 1.000000
vn 0.000000 0.000000 1.000000
vn 0.000000 0.000000 1.000000
vn -0.967748 -0.251922 0.000000
vn -0.967748 -0.251922 0.000000
vn -0.967748 -0.251922 0.000000
vn -0.967748 -0.251922 0.000000
vn 0.000000 0.000000 -1.000000
vn 0.000000 0.000000 -1.000000
vn 0.000000 0.000000 -1.000000
vn 0.000000 0.000000 -1.000000
vn 0.967748 0.251921 0.000000
vn 0.967748 0.251921 0.000000
vn 0.967748 0.251921 0.000000
vn 0.967748 0.251921 0.000000
vn 0.000000 0.000000 1.000000
vn 0.000000 0.000000 1.000000
vn 0.000000 0.000000 1.000000
vn 0.000000 0.000000 1.000000
vn 0.000000 1.000000 0.000000
vn 0.000000 1.000000 0.000000
vn 0.000000 1.000000 0.000000
vn 0.000000 1.000000 0.000000
vn 0.000000 0.000000 -1.000000
vn 0.000000 0.000000 -1.000000
vn 0.000000 0.000000 -1.000000
vn 0.000000 0.000000 -1.000000
vn 0.000000 -1.000000 0.000000
vn 0.000000 -1.000000 0.000000
vn 0.000000 -1.000000 0.000000
vn 0.000000 -1.000000 0.000000
vn 0.000000 0.000000 -1.000000
vn 0.000000 0.000000 -1.000000
vn 0.000000 0.000000 -1.000000
vn 0.000000 0.000000 -1.000000
vn 0.967748 -0.251921 0.000000
vn 0.967748 -0.251921 0.000000
vn 0.967748 -0.251921 0.000000
vn 0.967748 -0.251921 0.000000
vn 0.000000 0.000000 1.000000
vn 0.000000 0.000000 1.000000
vn 0.000000 0.000000 1.000000
vn 0.000000 0.000000 1.000000
vn -0.967748 0.251921 0.000000
vn -0.967748 0.251921 0.000000
vn -0.967748 0.251921 0.000000
vn -0.967748 0.251921 0.000000
vn 0.000000 0.000000 1.000000
vn 0.000000 0.000000 1.000000
vn 0.000000 0.000000 1.000000
vn 0.000000 0.000000 1.000000
vn 0.000000 1.000000 0.000000
vn 0.000000 1.000000 0.000000
vn 0.000000 1.000000 0.000000
vn 0.000000 1.000000 0.000000
vn 0.000000 -1.000000 0.000000
vn 0.000000 -1.000000 0.000000
vn 0.000000 -1.000000 0.000000
vn 0.000000 -1.000000 0.000000
vn 1.000000 0.000000 0.000000
vn 1.000000 0.000000 0.000000
vn 1.000000 0.000000 0.000000
vn 1.000000 0.000000 0.000000
vn -1.000000 0.000000 0.000000
vn -1.000000 0.000000 0.000000
vn -1.000000 0.000000 0.000000
vn -1.000000 0.000000 0.000000
s off
g Mesa_Larga
usemtl lambert19SG
f 1/1/1 2/2/2 4/3/3 3/4/4
f 3/4/5 4/3/6 6/5/7 5/6/8
f 5/6/9 6/5/10 8/7/11 7/8/12
f 13/9/13 14/10/14 15/11/15 16/12/16
f 2/2/17 8/7/18 6/5/19 4/3/20
f 7/8/21 1/1/22 3/4/23 5/6/24
f 7/8/25 8/7/26 10/93/27 9/13/28
f 8/7/29 2/2/30 11/94/31 10/14/32
f 2/2/33 1/1/34 12/92/35 11/15/36
f 1/1/37 7/8/38 9/91/39 12/16/40
f 9/73/41 10/76/42 14/10/43 13/9/44
f 10/76/45 11/75/46 15/11/47 14/10/48
f 11/75/49 12/74/50 16/12/51 15/11/52
f 12/74/53 9/73/54 13/9/55 16/12/56
f 17/17/57 18/18/58 20/19/59 19/20/60
f 19/20/61 20/19/62 22/21/63 21/22/64
f 21/22/65 22/21/66 24/23/67 23/79/68
f 23/24/69 24/80/70 18/18/71 17/17/72
f 25/25/73 26/26/74 28/27/75 27/28/76
f 27/28/77 28/27/78 30/29/79 29/83/80
f 29/30/81 30/84/82 32/31/83 31/32/84
f 31/32/85 32/31/86 26/26/87 25/25/88
f 33/33/89 34/34/90 36/35/91 35/81/92
f 35/36/93 36/82/94 38/37/95 37/38/96
f 37/38/97 38/37/98 40/39/99 39/40/100
f 39/40/101 40/39/102 34/34/103 33/33/104
f 41/41/105 42/42/106 44/43/107 43/44/108
f 43/44/109 44/43/110 46/45/111 45/46/112
f 45/46/113 46/45/114 48/47/115 47/89/116
f 47/48/117 48/90/118 42/42/119 41/41/120
f 49/49/121 50/50/122 52/51/123 51/52/124
f 51/52/125 52/51/126 54/53/127 53/87/128
f 53/54/129 54/88/130 56/55/131 55/56/132
f 55/56/133 56/55/134 50/50/135 49/49/136
f 57/57/137 58/58/138 60/59/139 59/85/140
f 59/60/141 60/86/142 62/61/143 61/62/144
f 61/62/145 62/61/146 64/63/147 63/64/148
f 63/64/149 64/63/150 58/58/151 57/57/152
f 65/65/153 66/66/154 68/67/155 67/68/156
f 67/68/157 68/67/158 70/77/159 69/70/160
f 71/78/161 72/72/162 66/66/163 65/65/164
f 66/66/165 72/72/166 70/69/167 68/67/168
f 71/71/169 65/65/170 67/68/171 69/70/172
