# This file uses meters as units for non-parametric coordinates.

mtllib mesa redonda.mtl
g default
v 0.430622 3.499447 -290.847896
v -6.753928 3.499447 -298.957579
v -16.884306 3.499447 -302.799522
v -27.639730 3.499447 -301.493558
v -36.556285 3.499447 -295.338951
v -41.591296 3.499447 -285.745536
v -41.591296 3.499447 -274.911065
v -36.556308 3.499447 -265.317695
v -27.639730 3.499447 -259.162998
v -16.884306 3.499447 -257.857057
v -6.753950 3.499447 -261.699000
v 0.430622 3.499447 -269.808683
v 3.023456 3.499447 -280.328301
v 0.430622 4.141950 -290.847896
v -6.753928 4.141950 -298.957579
v -16.884306 4.141950 -302.799522
v -27.639730 4.141950 -301.493558
v -36.556285 4.141950 -295.338951
v -41.591296 4.141950 -285.745536
v -41.591296 4.141950 -274.911065
v -36.556308 4.141950 -265.317695
v -27.639730 4.141950 -259.162998
v -16.884306 4.141950 -257.857057
v -6.753950 4.141950 -261.699000
v 0.430622 4.141950 -269.808683
v 3.023456 4.141950 -280.328301
v -14.471884 4.141948 -282.896020
v -16.225536 4.141948 -284.875452
v -18.698215 4.141948 -285.813231
v -21.323458 4.141948 -285.494474
v -23.499852 4.141948 -283.992185
v -24.728819 4.141948 -281.650569
v -24.728819 4.141948 -279.006032
v -23.499852 4.141948 -276.664416
v -21.323458 4.141948 -275.162194
v -18.698215 4.141948 -274.843437
v -16.225536 4.141948 -275.781217
v -14.471884 4.141948 -277.760649
v -13.839032 4.141948 -280.328301
v -14.471884 54.825782 -282.896020
v -16.225536 54.825782 -284.875452
v -18.698215 54.825782 -285.813231
v -21.323458 54.825782 -285.494474
v -23.499852 54.825782 -283.992185
v -24.728819 54.825782 -281.650569
v -24.728819 54.825782 -279.006032
v -23.499852 54.825782 -276.664416
v -21.323458 54.825782 -275.162194
v -18.698215 54.825782 -274.843437
v -16.225536 54.825782 -275.781217
v -14.471884 54.825782 -277.760649
v -13.839032 54.825782 -280.328301
v 32.346240 54.825782 -307.878016
v 13.530762 54.825782 -329.116567
v -12.999516 54.825782 -339.178001
v -41.166904 54.825782 -335.758108
v -64.518320 54.825782 -319.639426
v -77.704349 54.825782 -294.515372
v -77.704349 54.825782 -266.141207
v -64.518320 54.825782 -241.017153
v -41.166904 54.825782 -224.898515
v -12.999594 54.825782 -221.478623
v 13.530762 54.825782 -231.540436
v 32.346240 54.825782 -252.778742
v 39.136510 54.825782 -280.328390
v 32.346240 58.872615 -307.878016
v 13.530762 58.872615 -329.116567
v -12.999516 58.872615 -339.178001
v -41.166904 58.872615 -335.758108
v -64.518320 58.872615 -319.639426
v -77.704349 58.872615 -294.515372
v -77.704349 58.872615 -266.141207
v -64.518320 58.872615 -241.017153
v -41.166904 58.872615 -224.898515
v -12.999594 58.872615 -221.478623
v 13.530762 58.872615 -231.540436
v 32.346240 58.872615 -252.778742
v 39.136510 58.872615 -280.328390
v -19.806079 58.872627 -280.328368
vt 0.596787 0.424053
vt 0.623001 0.461936
vt 0.620537 0.462881
vt 0.595044 0.426035
vt 0.628600 0.507671
vt 0.625979 0.507362
vt 0.612301 0.550770
vt 0.610123 0.549278
vt 0.577842 0.581367
vt 0.576607 0.579035
vt 0.533098 0.592474
vt 0.533092 0.589835
vt 0.488333 0.581445
vt 0.489558 0.579107
vt 0.453821 0.550899
vt 0.455991 0.549398
vt 0.437454 0.507820
vt 0.440074 0.507499
vt 0.442984 0.462070
vt 0.445453 0.463003
vt 0.469144 0.424133
vt 0.470896 0.426107
vt 0.509933 0.402712
vt 0.510567 0.405274
vt 0.555982 0.402717
vt 0.555356 0.405281
vt 0.920855 0.467423
vt 0.909923 0.467422
vt 0.931787 0.467424
vt 0.942719 0.467425
vt 0.953651 0.467426
vt 0.964583 0.467427
vt 0.975515 0.467428
vt 0.986447 0.467429
vt 0.855263 0.467417
vt 0.866195 0.467418
vt 0.877127 0.467419
vt 0.888059 0.467420
vt 0.898991 0.467421
vt 0.256732 0.233381
vt 0.267679 0.233368
vt 0.247045 0.238476
vt 0.240836 0.247485
vt 0.239525 0.258345
vt 0.243410 0.268566
vt 0.251602 0.275807
vt 0.262220 0.278405
vt 0.272829 0.275766
vt 0.281026 0.268530
vt 0.284921 0.258307
vt 0.283619 0.247439
vt 0.277382 0.238441
vt 0.201500 0.019972
vt 0.318819 0.020010
vt 0.097602 0.074462
vt 0.030928 0.170991
vt 0.016752 0.287444
vt 0.058317 0.397143
vt 0.146103 0.474964
vt 0.260007 0.503087
vt 0.373953 0.475072
vt 0.461775 0.397255
vt 0.503377 0.287567
vt 0.489235 0.171134
vt 0.422665 0.074569
vt 0.874907 0.026820
vt 0.761023 -0.001255
vt 0.962698 0.104604
vt 1.004287 0.214277
vt 0.990143 0.330714
vt 0.923508 0.427241
vt 0.819648 0.481746
vt 0.702355 0.481741
vt 0.598499 0.427228
vt 0.531874 0.330694
vt 0.517741 0.214255
vt 0.559339 0.104586
vt 0.647137 0.026811
vt 0.760361 0.242563
vt 0.538721 0.472963
vt 0.548417 0.478051
vt 0.527772 0.472976
vt 0.518085 0.478073
vt 0.511876 0.487085
vt 0.510566 0.497949
vt 0.514454 0.508178
vt 0.522649 0.515427
vt 0.533277 0.518021
vt 0.543899 0.515404
vt 0.552086 0.508148
vt 0.555962 0.497917
vt 0.554637 0.487056
vt 0.898972 0.676938
vt 0.909904 0.676939
vt 0.888040 0.676937
vt 0.877108 0.676936
vt 0.866177 0.676935
vt 0.855245 0.676934
vt 0.986428 0.676946
vt 0.975496 0.676945
vt 0.964564 0.676944
vt 0.953632 0.676943
vt 0.942700 0.676942
vt 0.931768 0.676941
vt 0.920836 0.676940
vt 0.997378 0.467429
vt 0.997360 0.676946
vt 0.433651 0.062099
vt 0.322750 0.003863
vt 0.504755 0.165190
vt 0.519882 0.289506
vt 0.475488 0.406643
vt 0.381724 0.489761
vt 0.260051 0.519706
vt 0.138421 0.489700
vt 0.044668 0.406623
vt 0.000261 0.289497
vt 0.015371 0.165146
vt 0.086544 0.062056
vt 0.197475 0.003848
vn 0.885456 0.000000 -0.464723
vn 0.568064 0.000000 -0.822984
vn 0.040756 0.997423 -0.059046
vn 0.063824 0.997399 -0.033497
vn 0.120536 0.000000 -0.992709
vn 0.008592 0.997456 -0.070760
vn -0.354603 0.000000 -0.935017
vn -0.025103 0.997491 -0.066193
vn -0.748510 0.000000 -0.663124
vn -0.052692 0.997519 -0.046681
vn -0.970942 0.000000 -0.239315
vn -0.068134 0.997535 -0.016794
vn -0.970942 0.000000 0.239314
vn -0.068134 0.997535 0.016793
vn -0.748511 0.000000 0.663123
vn -0.052692 0.997519 0.046681
vn -0.354606 0.000000 0.935016
vn -0.025104 0.997491 0.066193
vn 0.120537 0.000000 0.992709
vn 0.008592 0.997456 0.070760
vn 0.568064 0.000000 0.822984
vn 0.040756 0.997423 0.059045
vn 0.885456 0.000000 0.464723
vn 0.063824 0.997399 0.033497
vn 1.000000 0.000000 -0.000000
vn 0.072202 0.997390 -0.000000
vn 0.404804 0.701569 -0.586460
vn 0.632417 0.699915 -0.331914
vn 0.085620 0.703892 -0.705127
vn -0.251019 0.706338 -0.661874
vn -0.528350 0.708346 -0.468072
vn -0.684251 0.709477 -0.168651
vn -0.684251 0.709477 0.168652
vn -0.528343 0.708352 0.468073
vn -0.251011 0.706339 0.661875
vn 0.085620 0.703894 0.705126
vn 0.404803 0.701570 0.586459
vn 0.632412 0.699919 0.331916
vn 0.714817 0.699312 0.000000
vn 0.568064 0.000000 -0.822984
vn 0.885458 0.000000 -0.464719
vn 0.120540 0.000000 -0.992709
vn -0.354609 0.000000 -0.935015
vn -0.748515 0.000000 -0.663118
vn -0.970942 0.000000 -0.239314
vn -0.970942 0.000000 0.239314
vn -0.748509 0.000000 0.663124
vn -0.354598 0.000000 0.935019
vn 0.120540 0.000000 0.992709
vn 0.568064 0.000000 0.822984
vn 0.885456 0.000000 0.464724
vn 1.000000 0.000000 0.000000
vn 0.000000 -1.000000 -0.000000
vn 0.000000 -1.000000 -0.000000
vn 0.000000 -1.000000 -0.000000
vn 0.000000 -1.000000 -0.000000
vn 0.000000 -1.000000 0.000000
vn 0.000000 -1.000000 0.000000
vn 0.000000 -1.000000 0.000000
vn 0.000000 -1.000000 0.000000
vn 0.000000 -1.000000 0.000000
vn 0.000000 -1.000000 0.000000
vn 0.000000 -1.000000 0.000000
vn 0.000000 -1.000000 0.000000
vn 0.000000 -1.000000 0.000000
vn 0.000000 -1.000000 0.000000
vn 0.000000 -1.000000 0.000000
vn 0.000000 -1.000000 0.000000
vn 0.000000 -1.000000 0.000000
vn 0.000000 -1.000000 0.000000
vn 0.000000 -1.000000 -0.000000
vn 0.000000 -1.000000 -0.000000
vn 0.000000 -1.000000 0.000000
vn 0.000000 -1.000000 0.000000
vn 0.000000 -1.000000 0.000000
vn 0.000000 -1.000000 0.000000
vn 0.000000 -1.000000 0.000000
vn 0.000000 -1.000000 0.000000
vn 0.885458 0.000000 -0.464720
vn 0.568065 0.000000 -0.822983
vn 0.090776 0.987150 -0.131511
vn 0.141746 0.987104 -0.074393
vn 0.120537 0.000000 -0.992709
vn 0.019213 0.987215 -0.158235
vn -0.354606 0.000000 -0.935016
vn -0.056374 0.987282 -0.148646
vn -0.748515 0.000000 -0.663118
vn -0.118736 0.987338 -0.105190
vn -0.970942 0.000000 -0.239314
vn -0.153831 0.987370 -0.037916
vn -0.970942 0.000000 0.239314
vn -0.153830 0.987370 0.037916
vn -0.748514 0.000000 0.663119
vn -0.118736 0.987338 0.105190
vn -0.354606 0.000000 0.935016
vn -0.056374 0.987282 0.148646
vn 0.120544 0.000000 0.992708
vn 0.019214 0.987214 0.158235
vn 0.568067 0.000000 0.822983
vn 0.090775 0.987150 0.131510
vn 0.885457 0.000000 0.464721
vn 0.141746 0.987104 0.074394
vn 1.000000 0.000000 -0.000000
vn 0.160185 0.987087 -0.000000
vn 0.000000 1.000000 0.000000
s 1
g Mesa5 Bar_Completo
usemtl lambert3SG
f 1/1/1 2/2/2 15/3/3 14/4/4
f 2/2/2 3/5/5 16/6/6 15/3/3
f 3/5/5 4/7/7 17/8/8 16/6/6
f 4/7/7 5/9/9 18/10/10 17/8/8
f 5/9/9 6/11/11 19/12/12 18/10/10
f 6/11/11 7/13/13 20/14/14 19/12/12
f 7/13/13 8/15/15 21/16/16 20/14/14
f 8/15/15 9/17/17 22/18/18 21/16/16
f 9/17/17 10/19/19 23/20/20 22/18/18
f 10/19/19 11/21/21 24/22/22 23/20/20
f 11/21/21 12/23/23 25/24/24 24/22/22
f 12/23/23 13/25/25 26/26/26 25/24/24
f 13/25/25 1/1/1 14/4/4 26/26/26
f 14/4/4 15/3/3 28/92/27 27/81/28
f 15/3/3 16/6/6 29/91/29 28/92/27
f 16/6/6 17/8/8 30/90/30 29/91/29
f 17/8/8 18/10/10 31/89/31 30/90/30
f 18/10/10 19/12/12 32/88/32 31/89/31
f 19/12/12 20/14/14 33/87/33 32/88/32
f 20/14/14 21/16/16 34/86/34 33/87/33
f 21/16/16 22/18/18 35/85/35 34/86/34
f 22/18/18 23/20/20 36/84/36 35/85/35
f 23/20/20 24/22/22 37/83/37 36/84/36
f 24/22/22 25/24/24 38/82/38 37/83/37
f 25/24/24 26/26/26 39/80/39 38/82/38
f 26/26/26 14/4/4 27/81/28 39/80/39
f 27/28/28 28/27/27 41/105/40 40/94/41
f 28/27/27 29/29/29 42/104/42 41/105/40
f 29/29/29 30/30/30 43/103/43 42/104/42
f 30/30/30 31/31/31 44/102/44 43/103/43
f 31/31/31 32/32/32 45/101/45 44/102/44
f 32/32/32 33/33/33 46/100/46 45/101/45
f 33/33/33 34/34/34 47/99/47 46/100/46
f 34/34/34 35/106/35 48/107/48 47/99/47
f 35/35/35 36/36/36 49/97/49 48/98/48
f 36/36/36 37/37/37 50/96/50 49/97/49
f 37/37/37 38/38/38 51/95/51 50/96/50
f 38/38/38 39/39/39 52/93/52 51/95/51
f 39/39/39 27/28/28 40/94/41 52/93/52
s 2
f 40/41/53 41/40/54 54/53/55 53/54/56
f 41/40/54 42/42/57 55/55/58 54/53/55
f 42/42/57 43/43/59 56/56/60 55/55/58
f 43/43/59 44/44/61 57/57/62 56/56/60
f 44/44/61 45/45/63 58/58/64 57/57/62
f 45/45/63 46/46/65 59/59/66 58/58/64
f 46/46/65 47/47/67 60/60/68 59/59/66
f 47/47/67 48/48/69 61/61/70 60/60/68
f 48/48/69 49/49/71 62/62/72 61/61/70
f 49/49/71 50/50/73 63/63/74 62/62/72
f 50/50/73 51/51/75 64/64/76 63/63/74
f 51/51/75 52/52/77 65/65/78 64/64/76
f 52/52/77 40/41/53 53/54/56 65/65/78
s 3
f 53/54/79 54/53/80 67/120/81 66/109/82
f 54/53/80 55/55/83 68/119/84 67/120/81
f 55/55/83 56/56/85 69/118/86 68/119/84
f 56/56/85 57/57/87 70/117/88 69/118/86
f 57/57/87 58/58/89 71/116/90 70/117/88
f 58/58/89 59/59/91 72/115/92 71/116/90
f 59/59/91 60/60/93 73/114/94 72/115/92
f 60/60/93 61/61/95 74/113/96 73/114/94
f 61/61/95 62/62/97 75/112/98 74/113/96
f 62/62/97 63/63/99 76/111/100 75/112/98
f 63/63/99 64/64/101 77/110/102 76/111/100
f 64/64/101 65/65/103 78/108/104 77/110/102
f 65/65/103 53/54/79 66/109/82 78/108/104
f 66/67/82 67/66/81 79/79/105
f 67/66/81 68/68/84 79/79/105
f 68/68/84 69/69/86 79/79/105
f 69/69/86 70/70/88 79/79/105
f 70/70/88 71/71/90 79/79/105
f 71/71/90 72/72/92 79/79/105
f 72/72/92 73/73/94 79/79/105
f 73/73/94 74/74/96 79/79/105
f 74/74/96 75/75/98 79/79/105
f 75/75/98 76/76/100 79/79/105
f 76/76/100 77/77/102 79/79/105
f 77/77/102 78/78/104 79/79/105
f 78/78/104 66/67/82 79/79/105
