# This file uses meters as units for non-parametric coordinates.

mtllib plato.mtl
g default
v 226.002950 149.336010 152.270883
v 224.430294 149.336010 151.128308
v 222.486425 149.336010 151.128308
v 220.913770 149.336010 152.270883
v 220.313079 149.336010 154.119642
v 220.913770 149.336010 155.968400
v 222.486425 149.336010 157.110975
v 224.430294 149.336010 157.110975
v 226.002950 149.336010 155.968400
v 226.603640 149.336010 154.119642
v 226.002950 149.709716 152.270883
v 224.430294 149.709716 151.128308
v 222.486425 149.709716 151.128308
v 220.913770 149.709716 152.270883
v 220.313079 149.709716 154.119642
v 220.913770 149.709716 155.968400
v 222.486425 149.709716 157.110975
v 224.430294 149.709716 157.110975
v 226.002950 149.709716 155.968400
v 226.603640 149.709716 154.119642
v 230.975119 153.791191 148.658418
v 226.329503 153.791191 145.283201
v 220.587216 153.791191 145.283201
v 215.941600 153.791191 148.658418
v 214.167143 153.791191 154.119642
v 215.941600 153.791191 159.580865
v 220.587216 153.791191 162.956082
v 226.329503 153.791191 162.956082
v 230.975119 153.791191 159.580865
v 232.749576 153.791191 154.119642
v 233.013086 157.957656 147.177756
v 227.107945 157.957656 142.887443
v 219.808775 157.957656 142.887443
v 213.903634 157.957656 147.177756
v 211.648078 157.957656 154.119642
v 213.903634 157.957656 161.061558
v 219.808775 157.957656 165.351871
v 227.107945 157.957656 165.351871
v 233.013086 157.957656 161.061558
v 235.268642 157.957656 154.119642
v 232.409001 158.388570 147.616636
v 227.091269 158.420247 142.938703
v 220.039526 158.388570 143.597558
v 214.507718 158.388570 147.616636
v 212.394775 158.388570 154.119642
v 214.507718 158.388570 160.622647
v 220.039526 158.388570 164.641725
v 226.877193 158.388570 164.641725
v 232.409001 158.388570 160.622647
v 234.521945 158.388570 154.119642
v 229.474630 154.946116 149.748577
v 225.542289 154.914440 147.705977
v 221.160355 154.946116 147.047122
v 217.442090 154.946116 149.748577
v 216.021845 154.946116 154.119642
v 217.442090 154.946116 158.490706
v 221.160355 154.946116 161.192191
v 225.756365 154.946116 161.192191
v 229.474630 154.946116 158.490706
v 230.894874 154.946116 154.119642
v 223.458360 150.817124 154.119642
v 223.458360 149.336013 154.119642
vt 0.214163 0.992695
vt 0.207434 0.992727
vt 0.206324 0.970213
vt 0.213308 0.970440
vt 0.200812 0.992893
vt 0.199309 0.970285
vt 0.194267 0.993259
vt 0.192286 0.970653
vt 0.187776 0.993856
vt 0.185276 0.971314
vt 0.181315 0.994697
vt 0.178299 0.972266
vt 0.174862 0.995773
vt 0.171378 0.973506
vt 0.168389 0.997058
vt 0.164532 0.975032
vt 0.161858 0.998498
vt 0.157784 0.976845
vt 0.155213 1.000000
vt 0.220238 0.970976
vt 0.217966 0.723625
vt 0.238312 0.724059
vt 0.197663 0.723973
vt 0.177417 0.725104
vt 0.157242 0.727017
vt 0.137151 0.729713
vt 0.117160 0.733190
vt 0.097283 0.737449
vt 0.077535 0.742486
vt 0.258686 0.725272
vt 0.205299 0.468500
vt 0.230399 0.462564
vt 0.180048 0.473315
vt 0.154733 0.477047
vt 0.128703 0.479738
vt 0.103158 0.481313
vt 0.077461 0.481805
vt 0.051721 0.481196
vt 0.025980 0.479444
vt 0.255319 0.455309
vt 0.199789 0.443036
vt 0.223636 0.437393
vt 0.175660 0.447656
vt 0.151311 0.451248
vt 0.126773 0.453808
vt 0.102185 0.455323
vt 0.077576 0.455791
vt 0.053001 0.455208
vt 0.028524 0.453571
vt 0.247126 0.430729
vt 0.157974 0.240539
vt 0.173716 0.236183
vt 0.142048 0.244038
vt 0.125975 0.246671
vt 0.109793 0.248434
vt 0.093543 0.249324
vt 0.077262 0.249339
vt 0.060989 0.248480
vt 0.044762 0.246752
vt 0.189237 0.230979
vt 0.089405 0.000000
vt 0.028615 0.244162
vt 0.004218 0.450875
vt 0.000000 0.502802
vt 0.057931 0.748300
vt 0.151158 0.978947
vt 0.221042 0.992690
vt 0.259368 0.472781
vt 0.000255 0.476394
vt 0.233260 0.472916
vt 0.025386 0.497017
vt 0.050974 0.491774
vt 0.076742 0.487124
vt 0.102662 0.483104
vt 0.180908 0.475020
vt 0.207096 0.473651
vt 0.000000 0.000000
vt 1.000000 0.000000
vt 0.500000 1.000000
vt 0.000000 0.000000
vt 1.000000 0.000000
vt 0.500000 1.000000
vt 0.000000 0.000000
vt 1.000000 0.000000
vt 0.500000 1.000000
vt 0.000000 0.000000
vt 1.000000 0.000000
vt 0.500000 1.000000
vt 0.000000 0.000000
vt 1.000000 0.000000
vt 0.500000 1.000000
vt 0.000000 0.000000
vt 1.000000 0.000000
vt 0.500000 1.000000
vt 0.000000 0.000000
vt 1.000000 0.000000
vt 0.500000 1.000000
vt 0.000000 0.000000
vt 1.000000 0.000000
vt 0.500000 1.000000
vt 0.000000 0.000000
vt 1.000000 0.000000
vt 0.500000 1.000000
vt 0.000000 0.000000
vt 1.000000 0.000000
vt 0.500000 1.000000
vn 0.587777 0.000000 -0.809023
vn 0.587777 0.000000 -0.809023
vn 0.587777 0.000000 -0.809023
vn 0.587777 0.000000 -0.809023
vn -0.000000 0.000000 -1.000000
vn -0.000000 0.000000 -1.000000
vn -0.000000 0.000000 -1.000000
vn -0.000000 0.000000 -1.000000
vn -0.587777 0.000000 -0.809023
vn -0.587777 0.000000 -0.809023
vn -0.587777 0.000000 -0.809023
vn -0.587777 0.000000 -0.809023
vn -0.951058 0.000000 -0.309013
vn -0.951058 0.000000 -0.309013
vn -0.951058 0.000000 -0.309013
vn -0.951058 0.000000 -0.309013
vn -0.951058 0.000000 0.309013
vn -0.951058 0.000000 0.309013
vn -0.951058 0.000000 0.309013
vn -0.951058 0.000000 0.309013
vn -0.587777 -0.000000 0.809023
vn -0.587777 -0.000000 0.809023
vn -0.587777 -0.000000 0.809023
vn -0.587777 -0.000000 0.809023
vn 0.000000 -0.000000 1.000000
vn 0.000000 -0.000000 1.000000
vn 0.000000 -0.000000 1.000000
vn 0.000000 -0.000000 1.000000
vn 0.587777 -0.000000 0.809023
vn 0.587777 -0.000000 0.809023
vn 0.587777 -0.000000 0.809023
vn 0.587777 -0.000000 0.809023
vn 0.951058 -0.000000 0.309013
vn 0.951058 -0.000000 0.309013
vn 0.951058 -0.000000 0.309013
vn 0.951058 -0.000000 0.309013
vn 0.951058 -0.000000 -0.309013
vn 0.951058 -0.000000 -0.309013
vn 0.951058 -0.000000 -0.309013
vn 0.951058 -0.000000 -0.309013
vn 0.336511 -0.819897 -0.463172
vn 0.336511 -0.819897 -0.463172
vn 0.336511 -0.819897 -0.463173
vn 0.336511 -0.819897 -0.463172
vn -0.000000 -0.819897 -0.572511
vn -0.000000 -0.819897 -0.572511
vn -0.000000 -0.819897 -0.572511
vn -0.000000 -0.819897 -0.572511
vn -0.336511 -0.819897 -0.463172
vn -0.336511 -0.819897 -0.463172
vn -0.336511 -0.819897 -0.463172
vn -0.336511 -0.819897 -0.463172
vn -0.544489 -0.819898 -0.176915
vn -0.544489 -0.819898 -0.176915
vn -0.544489 -0.819898 -0.176915
vn -0.544489 -0.819898 -0.176915
vn -0.544489 -0.819898 0.176915
vn -0.544489 -0.819898 0.176915
vn -0.544489 -0.819898 0.176915
vn -0.544489 -0.819898 0.176915
vn -0.336511 -0.819897 0.463172
vn -0.336511 -0.819897 0.463172
vn -0.336511 -0.819897 0.463173
vn -0.336511 -0.819897 0.463172
vn 0.000000 -0.819897 0.572511
vn 0.000000 -0.819897 0.572511
vn 0.000000 -0.819897 0.572511
vn 0.000000 -0.819897 0.572511
vn 0.336511 -0.819897 0.463172
vn 0.336511 -0.819897 0.463172
vn 0.336511 -0.819897 0.463172
vn 0.336511 -0.819897 0.463172
vn 0.544489 -0.819898 0.176915
vn 0.544489 -0.819898 0.176915
vn 0.544489 -0.819898 0.176915
vn 0.544489 -0.819898 0.176915
vn 0.544489 -0.819898 -0.176915
vn 0.544489 -0.819898 -0.176915
vn 0.544489 -0.819898 -0.176915
vn 0.544489 -0.819898 -0.176915
vn 0.509550 -0.498479 -0.701340
vn 0.509550 -0.498479 -0.701340
vn 0.509550 -0.498479 -0.701340
vn 0.509550 -0.498479 -0.701340
vn -0.000000 -0.498477 -0.866903
vn -0.000000 -0.498477 -0.866903
vn -0.000000 -0.498477 -0.866903
vn -0.000000 -0.498477 -0.866903
vn -0.509550 -0.498479 -0.701340
vn -0.509550 -0.498479 -0.701340
vn -0.509550 -0.498479 -0.701340
vn -0.509550 -0.498479 -0.701340
vn -0.824472 -0.498480 -0.267887
vn -0.824472 -0.498480 -0.267887
vn -0.824472 -0.498480 -0.267887
vn -0.824472 -0.498480 -0.267887
vn -0.824472 -0.498480 0.267886
vn -0.824472 -0.498480 0.267886
vn -0.824472 -0.498480 0.267886
vn -0.824472 -0.498480 0.267886
vn -0.509549 -0.498483 0.701338
vn -0.509549 -0.498483 0.701338
vn -0.509549 -0.498483 0.701338
vn -0.509549 -0.498483 0.701338
vn 0.000000 -0.498482 0.866900
vn 0.000000 -0.498482 0.866900
vn 0.000000 -0.498482 0.866900
vn 0.000000 -0.498482 0.866900
vn 0.509549 -0.498483 0.701338
vn 0.509549 -0.498483 0.701338
vn 0.509549 -0.498483 0.701338
vn 0.509549 -0.498483 0.701338
vn 0.824472 -0.498480 0.267886
vn 0.824472 -0.498480 0.267886
vn 0.824472 -0.498480 0.267886
vn 0.824472 -0.498480 0.267886
vn 0.824472 -0.498480 -0.267887
vn 0.824472 -0.498480 -0.267887
vn 0.824472 -0.498480 -0.267887
vn 0.824472 -0.498480 -0.267887
vn 0.473821 0.653182 -0.590633
vn 0.473821 0.653182 -0.590633
vn 0.473821 0.653182 -0.590633
vn 0.473821 0.653182 -0.590633
vn -0.036166 0.653166 -0.756351
vn -0.036166 0.653166 -0.756351
vn -0.036166 0.653166 -0.756351
vn -0.036166 0.653166 -0.756351
vn -0.304925 0.854913 -0.419695
vn -0.304925 0.854913 -0.419695
vn -0.304925 0.854913 -0.419695
vn -0.304925 0.854913 -0.419695
vn -0.493372 0.854919 -0.160306
vn -0.493372 0.854919 -0.160306
vn -0.493372 0.854919 -0.160306
vn -0.493372 0.854919 -0.160306
vn -0.493370 0.854920 0.160305
vn -0.493370 0.854920 0.160305
vn -0.493370 0.854920 0.160305
vn -0.493370 0.854920 0.160305
vn -0.304917 0.854921 0.419684
vn -0.304917 0.854921 0.419684
vn -0.304917 0.854921 0.419684
vn -0.304917 0.854921 0.419684
vn 0.000000 0.854919 0.518762
vn 0.000000 0.854919 0.518762
vn 0.000000 0.854919 0.518762
vn 0.000000 0.854919 0.518762
vn 0.304917 0.854921 0.419684
vn 0.304917 0.854921 0.419684
vn 0.304917 0.854921 0.419684
vn 0.304917 0.854921 0.419684
vn 0.493370 0.854920 0.160305
vn 0.493370 0.854920 0.160305
vn 0.493370 0.854920 0.160305
vn 0.493370 0.854920 0.160305
vn 0.493372 0.854919 -0.160306
vn 0.493372 0.854919 -0.160306
vn 0.493372 0.854919 -0.160306
vn 0.493372 0.854919 -0.160306
vn -0.379532 0.763590 0.522385
vn -0.379532 0.763590 0.522385
vn -0.379532 0.763590 0.522385
vn -0.379532 0.763590 0.522385
vn 0.000000 0.763590 0.645701
vn 0.000000 0.763590 0.645701
vn 0.000000 0.763590 0.645701
vn 0.000000 0.763590 0.645701
vn 0.415197 0.707835 0.571472
vn 0.415197 0.707835 0.571472
vn 0.415197 0.707835 0.571472
vn 0.415197 0.707835 0.571472
vn 0.671806 0.707835 0.218282
vn 0.671806 0.707835 0.218282
vn 0.671806 0.707835 0.218282
vn 0.671806 0.707835 0.218282
vn 0.671806 0.707835 -0.218282
vn 0.671806 0.707835 -0.218282
vn 0.671806 0.707835 -0.218282
vn 0.671806 0.707835 -0.218282
vn 0.415199 0.707834 -0.571473
vn 0.415199 0.707834 -0.571473
vn 0.415199 0.707834 -0.571473
vn 0.415199 0.707834 -0.571473
vn -0.000000 0.707833 -0.706380
vn -0.000000 0.707833 -0.706380
vn -0.000000 0.707833 -0.706380
vn -0.000000 0.707833 -0.706380
vn -0.415199 0.707834 -0.571473
vn -0.415199 0.707834 -0.571473
vn -0.415199 0.707834 -0.571473
vn -0.415199 0.707834 -0.571473
vn -0.671806 0.707835 -0.218282
vn -0.671806 0.707835 -0.218282
vn -0.671806 0.707835 -0.218282
vn -0.671806 0.707835 -0.218282
vn -0.671806 0.707835 0.218282
vn -0.671806 0.707835 0.218282
vn -0.671806 0.707835 0.218282
vn -0.671806 0.707835 0.218282
vn -0.247475 0.850982 0.463233
vn -0.247475 0.850982 0.463233
vn -0.247475 0.850982 0.463233
vn -0.072068 0.850982 0.520226
vn -0.072068 0.850982 0.520226
vn -0.072068 0.850982 0.520226
vn 0.296346 0.863601 0.407888
vn 0.296346 0.863601 0.407888
vn 0.296346 0.863601 0.407888
vn 0.479499 0.863601 0.155799
vn 0.479499 0.863601 0.155799
vn 0.479499 0.863601 0.155799
vn 0.479499 0.863601 -0.155799
vn 0.479499 0.863601 -0.155799
vn 0.479499 0.863601 -0.155799
vn 0.296347 0.863601 -0.407886
vn 0.296348 0.863601 -0.407886
vn 0.296347 0.863601 -0.407886
vn -0.000000 0.863601 -0.504175
vn -0.000000 0.863601 -0.504175
vn -0.000000 0.863602 -0.504175
vn -0.296348 0.863601 -0.407886
vn -0.296348 0.863601 -0.407886
vn -0.296347 0.863601 -0.407886
vn -0.479499 0.863601 -0.155799
vn -0.479499 0.863601 -0.155799
vn -0.479499 0.863601 -0.155799
vn -0.479499 0.863601 0.155799
vn -0.479499 0.863601 0.155799
vn -0.479499 0.863601 0.155799
vn -0.000001 -1.000000 0.000001
vn -0.000001 -1.000000 0.000001
vn -0.000001 -1.000000 0.000001
vn 0.000000 -1.000000 0.000001
vn 0.000000 -1.000000 0.000001
vn 0.000000 -1.000000 0.000001
vn 0.000001 -1.000000 0.000001
vn 0.000001 -1.000000 0.000001
vn 0.000001 -1.000000 0.000001
vn 0.000001 -1.000000 0.000000
vn 0.000001 -1.000000 0.000000
vn 0.000001 -1.000000 0.000000
vn 0.000001 -1.000000 -0.000000
vn 0.000001 -1.000000 -0.000000
vn 0.000001 -1.000000 -0.000000
vn 0.000001 -1.000000 -0.000001
vn 0.000001 -1.000000 -0.000001
vn 0.000001 -1.000000 -0.000001
vn -0.000000 -1.000000 -0.000001
vn -0.000000 -1.000000 -0.000001
vn -0.000000 -1.000000 -0.000001
vn -0.000001 -1.000000 -0.000001
vn -0.000001 -1.000000 -0.000001
vn -0.000001 -1.000000 -0.000001
vn -0.000001 -1.000000 -0.000000
vn -0.000001 -1.000000 -0.000000
vn -0.000001 -1.000000 -0.000000
vn -0.000001 -1.000000 0.000000
vn -0.000001 -1.000000 0.000000
vn -0.000001 -1.000000 0.000000
s off
g pCylinder13
usemtl lambert23SG
f 1/1/1 2/2/2 12/3/3 11/4/4
f 2/2/5 3/5/6 13/6/7 12/3/8
f 3/5/9 4/7/10 14/8/11 13/6/12
f 4/7/13 5/9/14 15/10/15 14/8/16
f 5/9/17 6/11/18 16/12/19 15/10/20
f 6/11/21 7/13/22 17/14/23 16/12/24
f 7/13/25 8/15/26 18/16/27 17/14/28
f 8/15/29 9/17/30 19/18/31 18/16/32
f 9/17/33 10/19/34 20/66/35 19/18/36
f 10/67/37 1/1/38 11/4/39 20/20/40
f 11/4/41 12/3/42 22/21/43 21/22/44
f 12/3/45 13/6/46 23/23/47 22/21/48
f 13/6/49 14/8/50 24/24/51 23/23/52
f 14/8/53 15/10/54 25/25/55 24/24/56
f 15/10/57 16/12/58 26/26/59 25/25/60
f 16/12/61 17/14/62 27/27/63 26/26/64
f 17/14/65 18/16/66 28/28/67 27/27/68
f 18/16/69 19/18/70 29/29/71 28/28/72
f 19/18/73 20/66/74 30/65/75 29/29/76
f 20/20/77 11/4/78 21/22/79 30/30/80
f 21/22/81 22/21/82 32/76/83 31/70/84
f 22/21/85 23/23/86 33/75/87 32/76/88
f 23/23/89 24/24/90 34/34/91 33/75/92
f 24/24/93 25/25/94 35/35/95 34/34/96
f 25/25/97 26/26/98 36/74/99 35/35/100
f 26/26/101 27/27/102 37/73/103 36/74/104
f 27/27/105 28/28/106 38/72/107 37/73/108
f 28/28/109 29/29/110 39/71/111 38/72/112
f 29/29/113 30/65/114 40/64/115 39/71/116
f 30/30/117 21/22/118 31/70/119 40/68/120
f 31/32/121 32/31/122 42/41/123 41/42/124
f 32/31/125 33/33/126 43/43/127 42/41/128
f 33/33/129 34/34/130 44/44/131 43/43/132
f 34/34/133 35/35/134 45/45/135 44/44/136
f 35/35/137 36/36/138 46/46/139 45/45/140
f 36/36/141 37/37/142 47/47/143 46/46/144
f 37/37/145 38/38/146 48/48/147 47/47/148
f 38/38/149 39/39/150 49/49/151 48/48/152
f 39/39/153 40/69/154 50/63/155 49/49/156
f 40/40/157 31/32/158 41/42/159 50/50/160
f 41/42/161 42/41/162 52/51/163 51/52/164
f 42/41/165 43/43/166 53/53/167 52/51/168
f 43/43/169 44/44/170 54/54/171 53/53/172
f 44/44/173 45/45/174 55/55/175 54/54/176
f 45/45/177 46/46/178 56/56/179 55/55/180
f 46/46/181 47/47/182 57/57/183 56/56/184
f 47/47/185 48/48/186 58/58/187 57/57/188
f 48/48/189 49/49/190 59/59/191 58/58/192
f 49/49/193 50/63/194 60/62/195 59/59/196
f 50/50/197 41/42/198 51/52/199 60/60/200
f 51/52/201 52/51/202 61/61/203
f 52/51/204 53/53/205 61/61/206
f 53/53/207 54/54/208 61/61/209
f 54/54/210 55/55/211 61/61/212
f 55/55/213 56/56/214 61/61/215
f 56/56/216 57/57/217 61/61/218
f 57/57/219 58/58/220 61/61/221
f 58/58/222 59/59/223 61/61/224
f 59/59/225 60/62/226 61/61/227
f 60/60/228 51/52/229 61/61/230
f 2/77/231 1/78/232 62/79/233
f 3/80/234 2/81/235 62/82/236
f 4/83/237 3/84/238 62/85/239
f 5/86/240 4/87/241 62/88/242
f 6/89/243 5/90/244 62/91/245
f 7/92/246 6/93/247 62/94/248
f 8/95/249 7/96/250 62/97/251
f 9/98/252 8/99/253 62/100/254
f 10/101/255 9/102/256 62/103/257
f 1/104/258 10/105/259 62/106/260
