# This file uses meters as units for non-parametric coordinates.

mtllib tablon.mtl
g default
v -989.948059 347.880585 -7.336502
v -667.738892 412.376129 -17.382294
v -998.841858 395.505585 -6.408642
v -676.616089 458.251892 -16.478111
v -999.392334 395.719849 -22.689936
v -677.166565 458.466309 -32.759361
v -990.498535 348.094971 -23.617754
v -668.289429 412.590393 -33.663589
v -1000.415283 391.005341 -6.414715
v -1000.965820 391.219696 -22.696003
v -674.005737 452.549194 -32.944130
v -673.455200 452.334930 -16.662880
v -997.787476 378.464508 -6.668697
v -998.338013 378.679108 -22.949926
v -672.057068 442.566010 -33.141495
v -671.506531 442.351624 -16.860222
v -993.869873 358.393005 -7.065453
v -994.420410 358.607391 -23.346724
v -668.139404 422.494415 -33.538254
v -667.588867 422.280151 -17.257004
v -991.868774 348.886810 -7.258266
v -992.419312 349.101196 -23.539557
v -666.292114 413.568176 -33.718266
v -665.741577 413.353577 -17.436996
v -999.879578 377.907776 -6.605289
v -1000.430054 378.122009 -22.886541
v -1002.507385 390.448364 -6.351307
v -1003.057922 390.662720 -22.632557
v -993.372925 348.486389 -7.212677
v -993.923462 348.700775 -23.493948
v -995.373962 357.992493 -7.019886
v -995.924500 358.206970 -23.301136
v -662.614929 414.547028 -33.829659
v -662.064453 414.332886 -17.548424
v -664.462097 423.473358 -33.649681
v -663.911560 423.259003 -17.368431
v -752.458252 398.050659 -14.706276
v -751.347168 399.034729 -14.730904
v -753.229248 408.092041 -14.547989
v -757.146912 428.164001 -14.151222
v -759.249207 438.725525 -13.941090
v -761.339111 444.322052 -13.796734
v -761.889648 444.536530 -30.077982
v -759.799744 438.939911 -30.222322
v -757.697449 428.378235 -30.432495
v -753.779724 408.306549 -30.829256
v -751.897705 399.248993 -31.012156
v -753.008789 398.265045 -30.987543
vt 0.518660 0.164840
vt 0.703884 0.164873
vt 0.149389 0.101478
vt 0.037984 0.100585
vt 0.503291 0.153853
vt 0.503256 0.335692
vt 0.462657 0.300955
vt 0.462217 0.205938
vt 0.646103 0.400156
vt 0.444863 0.301314
vt 0.703887 0.150310
vt 0.518663 0.150277
vt 0.187752 0.099939
vt 0.769454 0.150322
vt 0.443789 0.335310
vt 0.568000 0.030912
vt 0.140912 0.030912
vt 0.037923 0.120406
vt 0.460394 0.301328
vt 0.188758 0.118526
vt 0.459038 0.335342
vt 0.461503 0.334582
vt 0.503245 0.400084
vt 0.149399 0.120143
vt 0.256382 0.030909
vt 0.180197 0.034424
vt 0.195963 0.033593
vt 0.140911 0.033580
vt 0.456261 0.301324
vt 0.156677 0.031753
vt 0.188738 0.113835
vt 0.455135 0.335324
vt 0.037978 0.114496
vt 0.149396 0.115176
vt 0.641445 0.399913
vt 0.037938 0.105065
vt 0.448413 0.301287
vt 0.556785 0.031535
vt 0.447287 0.335287
vt 0.149356 0.105744
vt 0.221050 0.060865
vt 0.655270 0.400905
vt 0.659929 0.400663
vt 0.641444 0.400661
vt 0.613794 0.114474
vt 0.591521 0.035602
vt 0.533264 0.036227
vt 0.556785 0.036225
vt 0.444577 0.300812
vt 0.443572 0.334468
vt 0.488439 0.335689
vt 0.657158 0.038040
vt 0.771150 0.150322
vt 0.444150 0.205035
vt 0.443627 0.205696
vt 0.602736 0.031536
vt 0.447878 0.204997
vt 0.657153 0.069089
vt 0.455726 0.205034
vt 0.657157 0.050381
vt 0.460642 0.204988
vt 0.488472 0.153851
vt 0.591521 0.030912
vt 0.771148 0.164885
vt 0.188698 0.104404
vt 0.657147 0.106701
vt 0.180198 0.031756
vt 0.473039 0.060653
vt 0.195963 0.030924
vt 0.488473 0.150277
vt 0.655270 0.400158
vt 0.517008 0.150277
vt 0.659929 0.399915
vt 0.473040 0.105651
vt 0.219485 0.030931
vt 0.568000 0.035601
vt 0.613794 0.060655
vt 0.602736 0.036225
vt 0.501082 0.060653
vt 0.501081 0.114475
vt 0.533264 0.031537
vt 0.669096 0.400665
vt 0.220690 0.079252
vt 0.646103 0.400904
vt 0.256570 0.079373
vt 0.669096 0.399917
vt 0.256172 0.061232
vt 0.219484 0.033599
vt 0.256310 0.046697
vt 0.156677 0.034421
vt 0.279830 0.046803
vt 0.279902 0.031016
vt 0.431038 0.105653
vt 0.431037 0.060655
vt 0.148967 0.122863
vt 0.187877 0.121488
vt 0.148808 0.101134
vt 0.769451 0.164885
vt 0.692254 0.106706
vt 0.692263 0.069095
vt 0.692265 0.050387
vt 0.503291 0.150279
vt 0.039023 0.122298
vt 0.188726 0.100200
vt 0.038749 0.099956
vt 0.517005 0.164840
vt 0.692267 0.038047
vt 0.488426 0.400082
vn 0.033795 -0.013169 0.999342
vn 0.033795 -0.013167 0.999342
vn 0.033791 -0.013158 0.999342
vn 0.033791 -0.013159 0.999342
vn -0.200706 0.979454 0.019680
vn -0.190519 0.981493 0.019364
vn -0.190519 0.981493 0.019364
vn -0.200706 0.979454 0.019680
vn -0.033791 0.013158 -0.999342
vn -0.033791 0.013158 -0.999342
vn -0.033791 0.013157 -0.999342
vn -0.033791 0.013158 -0.999342
vn 0.206059 -0.978338 -0.019848
vn 0.195650 -0.980479 -0.019524
vn 0.195650 -0.980479 -0.019524
vn 0.206059 -0.978338 -0.019848
vn 0.438893 -0.898144 -0.026670
vn 0.438893 -0.898144 -0.026670
vn 0.325287 -0.945325 -0.023447
vn 0.325287 -0.945324 -0.023447
vn -0.463913 -0.885872 0.004021
vn -0.463913 -0.885872 0.004021
vn -0.463913 -0.885872 0.004021
vn -0.463913 -0.885872 0.004021
vn -0.943360 0.329785 0.036238
vn -0.943360 0.329785 0.036238
vn -0.943360 0.329785 0.036238
vn -0.943360 0.329785 0.036238
vn -0.033791 0.013159 -0.999342
vn -0.033791 0.013158 -0.999342
vn -0.033791 0.013158 -0.999342
vn -0.033791 0.013157 -0.999342
vn 0.951476 0.306435 -0.028138
vn 0.951476 0.306434 -0.028138
vn 0.881481 0.471631 -0.023595
vn 0.881481 0.471631 -0.023595
vn 0.033791 -0.013158 0.999342
vn 0.033791 -0.013158 0.999342
vn 0.033791 -0.013159 0.999342
vn 0.033792 -0.013160 0.999342
vn -0.978169 -0.205582 0.030368
vn -0.978169 -0.205582 0.030368
vn -0.978169 -0.205582 0.030368
vn -0.978169 -0.205582 0.030368
vn -0.033791 0.013159 -0.999342
vn -0.033791 0.013159 -0.999342
vn 0.980904 0.192065 -0.030640
vn 0.980904 0.192065 -0.030640
vn 0.033791 -0.013158 0.999342
vn 0.033791 -0.013158 0.999342
vn -0.980905 -0.192060 0.030639
vn -0.980905 -0.192060 0.030639
vn -0.980905 -0.192060 0.030639
vn -0.980905 -0.192060 0.030639
vn -0.033792 0.013159 -0.999342
vn -0.033792 0.013159 -0.999342
vn 0.980904 0.192062 -0.030640
vn 0.980904 0.192062 -0.030640
vn 0.033791 -0.013159 0.999342
vn 0.033791 -0.013159 0.999342
vn -0.977980 -0.206481 0.030350
vn -0.977980 -0.206481 0.030350
vn -0.977980 -0.206481 0.030350
vn -0.977980 -0.206481 0.030350
vn 0.978678 0.203136 -0.030419
vn 0.978678 0.203136 -0.030419
vn 0.978678 0.203136 -0.030419
vn 0.978678 0.203136 -0.030419
vn 0.256583 -0.966285 -0.021402
vn 0.256583 -0.966285 -0.021402
vn 0.256583 -0.966285 -0.021402
vn 0.256583 -0.966285 -0.021402
vn 0.033791 -0.013159 0.999342
vn 0.033791 -0.013159 0.999342
vn -0.256608 0.966279 0.021400
vn -0.256608 0.966279 0.021400
vn -0.256608 0.966279 0.021400
vn -0.256608 0.966279 0.021400
vn -0.033794 0.013156 -0.999342
vn -0.033794 0.013156 -0.999342
vn 0.256584 -0.966285 -0.021402
vn 0.256584 -0.966285 -0.021402
vn 0.256584 -0.966285 -0.021402
vn 0.256584 -0.966285 -0.021402
vn 0.033785 -0.013156 0.999343
vn 0.033785 -0.013156 0.999343
vn -0.256625 0.966274 0.021403
vn -0.256625 0.966274 0.021403
vn -0.256625 0.966274 0.021403
vn -0.256625 0.966274 0.021403
vn -0.033799 0.013155 -0.999342
vn -0.033799 0.013155 -0.999342
vn 0.256630 -0.966273 -0.021400
vn 0.256630 -0.966273 -0.021400
vn -0.033791 0.013159 -0.999342
vn -0.033791 0.013159 -0.999342
vn -0.033782 0.013160 -0.999343
vn -0.033782 0.013160 -0.999343
vn -0.256576 0.966287 0.021394
vn -0.256576 0.966287 0.021394
vn -0.256576 0.966287 0.021394
vn -0.256576 0.966287 0.021394
vn 0.033792 -0.013159 0.999342
vn 0.033791 -0.013158 0.999342
vn 0.033786 -0.013159 0.999343
vn 0.033786 -0.013159 0.999343
vn 0.033784 -0.013124 0.999343
vn 0.033792 -0.013159 0.999342
vn 0.033791 -0.013157 0.999342
vn 0.033791 -0.013156 0.999342
vn -0.161641 0.986677 0.018458
vn -0.161641 0.986677 0.018458
vn -0.033791 0.013155 -0.999342
vn -0.033792 0.013159 -0.999342
vn -0.033792 0.013159 -0.999342
vn -0.033794 0.013154 -0.999342
vn 0.166126 -0.985929 -0.018598
vn 0.166126 -0.985929 -0.018598
s 1
g pCube191 maderas Edifico Diorama
usemtl lambert18SG
f 1/105/1 37/97/2 38/3/3 21/4/4
s 2
f 3/5/5 42/6/6 43/51/7 5/62/8
s 3
f 22/54/9 47/10/10 48/49/11 7/55/12
s 4
f 7/12/13 48/11/14 37/2/15 1/1/16
s 5
f 2/98/17 8/14/18 23/53/19 24/64/20
s off
f 7/12/21 1/1/22 21/106/23 22/72/24
f 10/70/25 9/102/26 3/5/27 5/62/28
s 3
f 5/8/29 43/7/30 44/19/31 10/61/32
s 7
f 12/101/33 11/60/34 6/52/35 4/107/36
s 1
f 9/18/37 41/24/38 42/95/39 3/103/40
s off
f 26/25/41 25/92/42 27/91/43 28/89/44
s 3
f 10/61/32 44/19/31 45/29/45 14/59/46
s 7
f 16/100/47 15/58/48 11/60/34 12/101/33
s 1
f 13/33/49 40/34/50 41/24/38 9/18/37
s off
f 18/74/51 17/93/52 13/94/53 14/68/54
s 3
f 14/59/46 45/29/45 46/37/55 18/57/56
s 7
f 20/99/57 19/66/58 15/58/48 16/100/47
s 1
f 17/36/59 39/40/60 40/34/50 13/33/49
s off
f 30/41/61 29/87/62 31/85/63 32/83/64
s 3
f 18/57/56 46/37/55 47/10/10 22/54/9
s off
f 34/45/65 33/80/66 35/79/67 36/77/68
s 1
f 21/4/4 38/3/3 39/40/60 17/36/59
s off
f 14/30/69 13/67/70 25/26/71 26/90/72
s 1
f 13/67/49 9/69/37 27/27/73 25/26/74
s off
f 9/69/75 10/75/76 28/88/77 27/27/78
s 3
f 10/17/32 14/30/46 26/90/79 28/28/80
s off
f 22/9/81 21/71/82 29/42/83 30/84/84
s 1
f 21/71/4 17/73/59 31/43/85 29/42/86
s off
f 17/73/87 18/86/88 32/82/89 31/43/90
s 3
f 18/35/56 22/9/9 30/84/91 32/44/92
s 5
f 24/16/20 23/63/19 33/46/93 34/76/94
s 3
f 23/63/95 19/56/96 35/78/97 33/46/98
s off
f 19/81/99 20/38/100 36/48/101 35/47/102
s 1
f 20/38/103 24/16/104 34/76/105 36/48/106
f 38/3/3 37/97/2 2/13/107 24/104/104
f 39/40/60 38/3/3 24/104/104 20/65/103
f 40/34/50 39/40/60 20/65/103 16/31/108
f 41/24/38 40/34/50 16/31/108 12/20/109
f 42/95/39 41/24/38 12/20/109 4/96/110
s 2
f 43/51/7 42/6/6 4/23/111 6/108/112
s 3
f 44/19/31 43/7/30 6/22/113 11/21/114
f 45/29/45 44/19/31 11/21/114 15/32/115
f 46/37/55 45/29/45 15/32/115 19/39/96
f 47/10/10 46/37/55 19/39/96 23/15/95
f 48/49/11 47/10/10 23/15/95 8/50/116
s 4
f 37/2/15 48/11/14 8/14/117 2/98/118
